<svg xmlns="http://www.w3.org/2000/svg" xmlns:xlink="http://www.w3.org/1999/xlink" contentStyleType="text/css" height="687px" preserveAspectRatio="none" style="width:1769px;height:687px;background:#FFFFFF;" version="1.1" viewBox="0 0 1769 687" width="1769px" zoomAndPan="magnify"><title>Life Plan Tracker &#8212; 14 Development Pillars</title><defs/><g><text fill="#000000" font-family="sans-serif" font-size="18" font-weight="bold" lengthAdjust="spacing" textLength="438.0117" x="660.9941" y="31.708">Life Plan Tracker &#8212; 14 Development Pillars</text><rect fill="none" height="111.7813" id="_legend" rx="7.5" ry="7.5" style="stroke:#000000;stroke-width:1;" width="366.5283" x="696.7358" y="51.9531"/><text fill="#000000" font-family="sans-serif" font-size="14" font-weight="bold" lengthAdjust="spacing" textLength="47.5029" x="706.6099" y="71.9482">Phase</text><text fill="#000000" font-family="sans-serif" font-size="14" font-weight="bold" lengthAdjust="spacing" textLength="38.6846" x="802.1147" y="71.9482">Ages</text><text fill="#000000" font-family="sans-serif" font-size="14" font-weight="bold" lengthAdjust="spacing" textLength="45.7803" x="851.6958" y="71.9482">Focus</text><text fill="#000000" font-family="sans-serif" font-size="14" lengthAdjust="spacing" textLength="78.6475" x="706.186" y="88.2451">Foundation</text><text fill="#000000" font-family="sans-serif" font-size="14" lengthAdjust="spacing" textLength="22.8662" x="801.6909" y="88.2451">0-5</text><text fill="#000000" font-family="sans-serif" font-size="14" lengthAdjust="spacing" textLength="168.4033" x="851.272" y="88.2451">Receive, observe, begin</text><text fill="#000000" font-family="sans-serif" font-size="14" lengthAdjust="spacing" textLength="79.625" x="706.186" y="104.542">Exploration</text><text fill="#000000" font-family="sans-serif" font-size="14" lengthAdjust="spacing" textLength="31.7734" x="801.6909" y="104.542">6-12</text><text fill="#000000" font-family="sans-serif" font-size="14" lengthAdjust="spacing" textLength="128.6523" x="851.272" y="104.542">Ask, test, discover</text><text fill="#000000" font-family="sans-serif" font-size="14" lengthAdjust="spacing" textLength="71.4082" x="706.186" y="120.8389">Formation</text><text fill="#000000" font-family="sans-serif" font-size="14" lengthAdjust="spacing" textLength="40.6807" x="801.6909" y="120.8389">13-18</text><text fill="#000000" font-family="sans-serif" font-size="14" lengthAdjust="spacing" textLength="202.542" x="851.272" y="120.8389">Build conviction, test models</text><text fill="#000000" font-family="sans-serif" font-size="14" lengthAdjust="spacing" textLength="50.6953" x="706.186" y="137.1357">Launch</text><text fill="#000000" font-family="sans-serif" font-size="14" lengthAdjust="spacing" textLength="40.6807" x="801.6909" y="137.1357">18-25</text><text fill="#000000" font-family="sans-serif" font-size="14" lengthAdjust="spacing" textLength="170.4131" x="851.272" y="137.1357">Independent application</text><text fill="#000000" font-family="sans-serif" font-size="14" lengthAdjust="spacing" textLength="86.6045" x="706.186" y="153.4326">Stewardship</text><text fill="#000000" font-family="sans-serif" font-size="14" lengthAdjust="spacing" textLength="40.6807" x="801.6909" y="153.4326">25-35</text><text fill="#000000" font-family="sans-serif" font-size="14" lengthAdjust="spacing" textLength="164.7939" x="851.272" y="153.4326">Transmit, protect, build</text><line style="stroke:#000000;stroke-width:1;" x1="701.7358" x2="1058.2642" y1="58.9531" y2="58.9531"/><line style="stroke:#000000;stroke-width:1;" x1="701.7358" x2="1058.2642" y1="75.25" y2="75.25"/><line style="stroke:#000000;stroke-width:1;" x1="701.7358" x2="1058.2642" y1="91.5469" y2="91.5469"/><line style="stroke:#000000;stroke-width:1;" x1="701.7358" x2="1058.2642" y1="107.8438" y2="107.8438"/><line style="stroke:#000000;stroke-width:1;" x1="701.7358" x2="1058.2642" y1="124.1406" y2="124.1406"/><line style="stroke:#000000;stroke-width:1;" x1="701.7358" x2="1058.2642" y1="140.4375" y2="140.4375"/><line style="stroke:#000000;stroke-width:1;" x1="701.7358" x2="1058.2642" y1="156.7344" y2="156.7344"/><line style="stroke:#000000;stroke-width:1;" x1="701.7358" x2="701.7358" y1="58.9531" y2="156.7344"/><line style="stroke:#000000;stroke-width:1;" x1="797.2407" x2="797.2407" y1="58.9531" y2="156.7344"/><line style="stroke:#000000;stroke-width:1;" x1="846.8218" x2="846.8218" y1="58.9531" y2="156.7344"/><line style="stroke:#000000;stroke-width:1;" x1="1058.2642" x2="1058.2642" y1="58.9531" y2="156.7344"/><!--cluster core--><g id="cluster_core"><path d="M896.5,175.7344 L1002.3828,175.7344 A3.75,3.75 0 0 1 1004.8828,178.2344 L1011.8828,195.7031 L1511.5,195.7031 A2.5,2.5 0 0 1 1514,198.2031 L1514,283.2344 A2.5,2.5 0 0 1 1511.5,285.7344 L896.5,285.7344 A2.5,2.5 0 0 1 894,283.2344 L894,178.2344 A2.5,2.5 0 0 1 896.5,175.7344 " fill="#FAFAFA" style="stroke:#000000;stroke-width:1;"/><line style="stroke:#000000;stroke-width:1;" x1="894" x2="1011.8828" y1="195.7031" y2="195.7031"/><text fill="#000000" font-family="sans-serif" font-size="12" font-weight="bold" lengthAdjust="spacing" textLength="104.8828" x="898" y="188.873">Core Formation</text></g><!--cluster prac--><g id="cluster_prac"><path d="M13.5,175.7344 L161.7285,175.7344 A3.75,3.75 0 0 1 164.2285,178.2344 L171.2285,195.7031 L593.5,195.7031 A2.5,2.5 0 0 1 596,198.2031 L596,440.2344 A2.5,2.5 0 0 1 593.5,442.7344 L13.5,442.7344 A2.5,2.5 0 0 1 11,440.2344 L11,178.2344 A2.5,2.5 0 0 1 13.5,175.7344 " fill="#FAFAFA" style="stroke:#000000;stroke-width:1;"/><line style="stroke:#000000;stroke-width:1;" x1="11" x2="171.2285" y1="195.7031" y2="195.7031"/><text fill="#000000" font-family="sans-serif" font-size="12" font-weight="bold" lengthAdjust="spacing" textLength="147.2285" x="15" y="188.873">Practical Competence</text></g><!--cluster ident--><g id="cluster_ident"><path d="M622.5,332.7344 L772.8145,332.7344 A3.75,3.75 0 0 1 775.3145,335.2344 L782.3145,352.7031 L1271.5,352.7031 A2.5,2.5 0 0 1 1274,355.2031 L1274,440.2344 A2.5,2.5 0 0 1 1271.5,442.7344 L622.5,442.7344 A2.5,2.5 0 0 1 620,440.2344 L620,335.2344 A2.5,2.5 0 0 1 622.5,332.7344 " fill="#FAFAFA" style="stroke:#000000;stroke-width:1;"/><line style="stroke:#000000;stroke-width:1;" x1="620" x2="782.3145" y1="352.7031" y2="352.7031"/><text fill="#000000" font-family="sans-serif" font-size="12" font-weight="bold" lengthAdjust="spacing" textLength="149.3145" x="624" y="345.873">Identity &amp; Inheritance</text></g><!--cluster civic--><g id="cluster_civic"><path d="M1558.5,332.7344 L1693.416,332.7344 A3.75,3.75 0 0 1 1695.916,335.2344 L1702.916,352.7031 L1759.5,352.7031 A2.5,2.5 0 0 1 1762,355.2031 L1762,579.2344 A2.5,2.5 0 0 1 1759.5,581.7344 L1558.5,581.7344 A2.5,2.5 0 0 1 1556,579.2344 L1556,335.2344 A2.5,2.5 0 0 1 1558.5,332.7344 " fill="#FAFAFA" style="stroke:#000000;stroke-width:1;"/><line style="stroke:#000000;stroke-width:1;" x1="1556" x2="1702.916" y1="352.7031" y2="352.7031"/><text fill="#000000" font-family="sans-serif" font-size="12" font-weight="bold" lengthAdjust="spacing" textLength="133.916" x="1560" y="345.873">Civic &amp; Institutional</text></g><!--cluster form--><g id="cluster_form"><path d="M1300.5,332.7344 L1449.2969,332.7344 A3.75,3.75 0 0 1 1451.7969,335.2344 L1458.7969,352.7031 L1529.5,352.7031 A2.5,2.5 0 0 1 1532,355.2031 L1532,579.2344 A2.5,2.5 0 0 1 1529.5,581.7344 L1300.5,581.7344 A2.5,2.5 0 0 1 1298,579.2344 L1298,335.2344 A2.5,2.5 0 0 1 1300.5,332.7344 " fill="#FAFAFA" style="stroke:#000000;stroke-width:1;"/><line style="stroke:#000000;stroke-width:1;" x1="1298" x2="1458.7969" y1="352.7031" y2="352.7031"/><text fill="#000000" font-family="sans-serif" font-size="12" font-weight="bold" lengthAdjust="spacing" textLength="147.7969" x="1302" y="345.873">Formation &amp; Vocation</text></g><!--entity sp--><g id="elem_sp"><rect fill="#F3EEFF" height="47.9375" rx="6" ry="6" style="stroke:#CCCCCC;stroke-width:1;" width="165.1543" x="1332.5" y="214.7344"/><text fill="#000000" font-family="sans-serif" font-size="12" lengthAdjust="spacing" textLength="10.0547" x="1342.5" y="235.873">&#10013;&#65039;</text><text fill="#000000" font-family="sans-serif" font-size="12" font-weight="bold" lengthAdjust="spacing" textLength="57.8672" x="1360.1836" y="235.873">Spiritual</text><text fill="#000000" font-family="sans-serif" font-size="12" lengthAdjust="spacing" textLength="145.1543" x="1342.5" y="249.8418">Faith, prayer, worldview</text></g><!--entity ch--><g id="elem_ch"><rect fill="#EAFFEA" height="47.9375" rx="6" ry="6" style="stroke:#CCCCCC;stroke-width:1;" width="176.668" x="1120.5" y="214.7344"/><text fill="#000000" font-family="sans-serif" font-size="12" lengthAdjust="spacing" textLength="0" x="1130.5" y="235.873">&#128737;&#65039;</text><text fill="#000000" font-family="sans-serif" font-size="12" font-weight="bold" lengthAdjust="spacing" textLength="66.3691" x="1138.1289" y="235.873">Character</text><text fill="#000000" font-family="sans-serif" font-size="12" lengthAdjust="spacing" textLength="156.668" x="1130.5" y="249.8418">Virtue, discipline, courage</text></g><!--entity dn--><g id="elem_dn"><rect fill="#E8F0FF" height="61.9063" rx="6" ry="6" style="stroke:#CCCCCC;stroke-width:1;" width="174.9512" x="910.5" y="207.7344"/><text fill="#000000" font-family="sans-serif" font-size="12" lengthAdjust="spacing" textLength="0" x="920.5" y="228.873">&#129517;</text><text fill="#000000" font-family="sans-serif" font-size="12" font-weight="bold" lengthAdjust="spacing" textLength="102.6973" x="928.1289" y="228.873">Life Navigation</text><text fill="#000000" font-family="sans-serif" font-size="12" lengthAdjust="spacing" textLength="154.9512" x="920.5" y="242.8418">Perception, consequence,</text><text fill="#000000" font-family="sans-serif" font-size="12" lengthAdjust="spacing" textLength="124.9805" x="920.5" y="256.8105">horizons of influence</text></g><!--entity fi--><g id="elem_fi"><rect fill="#FFF8E0" height="61.9063" rx="6" ry="6" style="stroke:#CCCCCC;stroke-width:1;" width="161.2988" x="418.5" y="207.7344"/><text fill="#000000" font-family="sans-serif" font-size="12" lengthAdjust="spacing" textLength="0" x="428.5" y="228.873">&#128176;</text><text fill="#000000" font-family="sans-serif" font-size="12" font-weight="bold" lengthAdjust="spacing" textLength="60.9316" x="436.1289" y="228.873">Financial</text><text fill="#000000" font-family="sans-serif" font-size="12" lengthAdjust="spacing" textLength="141.2988" x="428.5" y="242.8418">Investment, ownership,</text><text fill="#000000" font-family="sans-serif" font-size="12" lengthAdjust="spacing" textLength="119.959" x="428.5" y="256.8105">generational wealth</text></g><!--entity ed--><g id="elem_ed"><rect fill="#E8F6FF" height="61.9063" rx="6" ry="6" style="stroke:#CCCCCC;stroke-width:1;" width="164.4629" x="27" y="207.7344"/><text fill="#000000" font-family="sans-serif" font-size="12" lengthAdjust="spacing" textLength="0" x="37" y="228.873">&#127891;</text><text fill="#000000" font-family="sans-serif" font-size="12" font-weight="bold" lengthAdjust="spacing" textLength="131.0156" x="44.6289" y="228.873">Education &amp; Career</text><text fill="#000000" font-family="sans-serif" font-size="12" lengthAdjust="spacing" textLength="144.4629" x="37" y="242.8418">Aptitude, specialization,</text><text fill="#000000" font-family="sans-serif" font-size="12" lengthAdjust="spacing" textLength="49.418" x="37" y="256.8105">mastery</text></g><!--entity ls--><g id="elem_ls"><rect fill="#FFF5EE" height="61.9063" rx="6" ry="6" style="stroke:#CCCCCC;stroke-width:1;" width="156.8398" x="226.5" y="207.7344"/><text fill="#000000" font-family="sans-serif" font-size="12" lengthAdjust="spacing" textLength="0" x="236.5" y="228.873">&#128295;</text><text fill="#000000" font-family="sans-serif" font-size="12" font-weight="bold" lengthAdjust="spacing" textLength="65.4023" x="244.1289" y="228.873">Life Skills</text><text fill="#000000" font-family="sans-serif" font-size="12" lengthAdjust="spacing" textLength="136.8398" x="236.5" y="242.8418">Domestic, mechanical,</text><text fill="#000000" font-family="sans-serif" font-size="12" lengthAdjust="spacing" textLength="119.1738" x="236.5" y="256.8105">admin, digital, legal</text></g><!--entity re--><g id="elem_re"><rect fill="#F0F4FF" height="61.9063" rx="6" ry="6" style="stroke:#CCCCCC;stroke-width:1;" width="159.9922" x="29" y="364.7344"/><text fill="#000000" font-family="sans-serif" font-size="12" lengthAdjust="spacing" textLength="0" x="39" y="385.873">&#127956;&#65039;</text><text fill="#000000" font-family="sans-serif" font-size="12" font-weight="bold" lengthAdjust="spacing" textLength="68.7949" x="46.6289" y="385.873">Resilience</text><text fill="#000000" font-family="sans-serif" font-size="12" lengthAdjust="spacing" textLength="139.9922" x="39" y="399.8418">Pressure management,</text><text fill="#000000" font-family="sans-serif" font-size="12" lengthAdjust="spacing" textLength="130.1191" x="39" y="413.8105">failure modes, ADAPT</text></g><!--entity he--><g id="elem_he"><rect fill="#F0FFF0" height="61.9063" rx="6" ry="6" style="stroke:#CCCCCC;stroke-width:1;" width="171.4707" x="1086.5" y="364.7344"/><text fill="#000000" font-family="sans-serif" font-size="12" lengthAdjust="spacing" textLength="0" x="1096.5" y="385.873">&#127795;</text><text fill="#000000" font-family="sans-serif" font-size="12" font-weight="bold" lengthAdjust="spacing" textLength="143.8418" x="1104.1289" y="385.873">Heritage &amp; Language</text><text fill="#000000" font-family="sans-serif" font-size="12" lengthAdjust="spacing" textLength="141.2813" x="1096.5" y="399.8418">Ancestry, bilingual dev,</text><text fill="#000000" font-family="sans-serif" font-size="12" lengthAdjust="spacing" textLength="125.2266" x="1096.5" y="413.8105">cultural preservation</text></g><!--entity is_--><g id="elem_is_"><rect fill="#FFFFF0" height="61.9063" rx="6" ry="6" style="stroke:#CCCCCC;stroke-width:1;" width="208.3965" x="843" y="364.7344"/><text fill="#000000" font-family="sans-serif" font-size="12" lengthAdjust="spacing" textLength="0" x="853" y="385.873">&#128220;</text><text fill="#000000" font-family="sans-serif" font-size="12" font-weight="bold" lengthAdjust="spacing" textLength="180.7676" x="860.6289" y="385.873">Inheritance &amp; Stewardship</text><text fill="#000000" font-family="sans-serif" font-size="12" lengthAdjust="spacing" textLength="132.7617" x="853" y="399.8418">Receive, audit, repair,</text><text fill="#000000" font-family="sans-serif" font-size="12" lengthAdjust="spacing" textLength="50.5781" x="853" y="413.8105">transmit</text></g><!--entity ec--><g id="elem_ec"><rect fill="#FFFBF0" height="61.9063" rx="6" ry="6" style="stroke:#CCCCCC;stroke-width:1;" width="170.8086" x="636.5" y="364.7344"/><text fill="#000000" font-family="sans-serif" font-size="12" lengthAdjust="spacing" textLength="10.7578" x="646.5" y="385.873">&#9878;&#65039;</text><text fill="#000000" font-family="sans-serif" font-size="12" font-weight="bold" lengthAdjust="spacing" textLength="109.6934" x="664.8867" y="385.873">Family Economy</text><text fill="#000000" font-family="sans-serif" font-size="12" lengthAdjust="spacing" textLength="150.8086" x="646.5" y="399.8418">Bounties, tiers, behavior,</text><text fill="#000000" font-family="sans-serif" font-size="12" lengthAdjust="spacing" textLength="126.2344" x="646.5" y="413.8105">earned responsibility</text></g><!--entity ci--><g id="elem_ci"><rect fill="#F5F5FF" height="61.9063" rx="6" ry="6" style="stroke:#CCCCCC;stroke-width:1;" width="165.9336" x="1574" y="364.7344"/><text fill="#000000" font-family="sans-serif" font-size="12" lengthAdjust="spacing" textLength="0" x="1584" y="385.873">&#127963;&#65039;</text><text fill="#000000" font-family="sans-serif" font-size="12" font-weight="bold" lengthAdjust="spacing" textLength="133.916" x="1591.6289" y="385.873">Civic &amp; Institutional</text><text fill="#000000" font-family="sans-serif" font-size="12" lengthAdjust="spacing" textLength="145.9336" x="1584" y="399.8418">Governance, ownership,</text><text fill="#000000" font-family="sans-serif" font-size="12" lengthAdjust="spacing" textLength="110.5723" x="1584" y="413.8105">corruption literacy</text></g><!--entity sm--><g id="elem_sm"><rect fill="#FFF5F5" height="61.9063" rx="6" ry="6" style="stroke:#CCCCCC;stroke-width:1;" width="172.8125" x="1572.5" y="503.7344"/><text fill="#000000" font-family="sans-serif" font-size="12" lengthAdjust="spacing" textLength="0" x="1582.5" y="524.873">&#128300;</text><text fill="#000000" font-family="sans-serif" font-size="12" font-weight="bold" lengthAdjust="spacing" textLength="118.2188" x="1590.1289" y="524.873">Scientific Method</text><text fill="#000000" font-family="sans-serif" font-size="12" lengthAdjust="spacing" textLength="152.8125" x="1582.5" y="538.8418">Reality testing, evidence,</text><text fill="#000000" font-family="sans-serif" font-size="12" lengthAdjust="spacing" textLength="104.9121" x="1582.5" y="552.8105">knowledge decay</text></g><!--entity cf--><g id="elem_cf"><rect fill="#F3EEFF" height="61.9063" rx="6" ry="6" style="stroke:#CCCCCC;stroke-width:1;" width="202.6133" x="1313.5" y="364.7344"/><text fill="#000000" font-family="sans-serif" font-size="12" lengthAdjust="spacing" textLength="0" x="1323.5" y="385.873">&#9962;</text><text fill="#000000" font-family="sans-serif" font-size="12" font-weight="bold" lengthAdjust="spacing" textLength="128.543" x="1331.1289" y="385.873">Catholic Formation</text><text fill="#000000" font-family="sans-serif" font-size="12" lengthAdjust="spacing" textLength="182.6133" x="1323.5" y="399.8418">Sacraments, domestic church,</text><text fill="#000000" font-family="sans-serif" font-size="12" lengthAdjust="spacing" textLength="103.2422" x="1323.5" y="413.8105">authority literacy</text></g><!--entity ss--><g id="elem_ss"><rect fill="#FFF5EE" height="61.9063" rx="6" ry="6" style="stroke:#CCCCCC;stroke-width:1;" width="152.6797" x="1338.5" y="503.7344"/><text fill="#000000" font-family="sans-serif" font-size="12" lengthAdjust="spacing" textLength="0" x="1348.5" y="524.873">&#127749;</text><text fill="#000000" font-family="sans-serif" font-size="12" font-weight="bold" lengthAdjust="spacing" textLength="101.2441" x="1356.1289" y="524.873">Secular Sacred</text><text fill="#000000" font-family="sans-serif" font-size="12" lengthAdjust="spacing" textLength="128.5137" x="1348.5" y="538.8418">Civilizational literacy,</text><text fill="#000000" font-family="sans-serif" font-size="12" lengthAdjust="spacing" textLength="132.6797" x="1348.5" y="552.8105">return path preserved</text></g><g id="elem_GMN27"><path d="M1150,628.7344 L1150,680.6406 A0,0 0 0 0 1150,680.6406 L1679.6465,680.6406 A0,0 0 0 0 1679.6465,680.6406 L1679.6465,638.7344 L1669.6465,628.7344 L1419,628.7344 L1415,565.8144 L1411,628.7344 L1150,628.7344 A0,0 0 0 0 1150,628.7344 " fill="#F8F9FA" style="stroke:#DEE2E6;stroke-width:1;"/><path d="M1669.6465,628.7344 L1669.6465,638.7344 L1679.6465,638.7344 L1669.6465,628.7344 " fill="#F8F9FA" style="stroke:#DEE2E6;stroke-width:1;"/><text fill="#000000" font-family="sans-serif" font-size="12" font-weight="bold" lengthAdjust="spacing" textLength="103.043" x="1156" y="644.873">451 milestones</text><text fill="#000000" font-family="sans-serif" font-size="12" lengthAdjust="spacing" textLength="221.2207" x="1262.8574" y="644.873">seeded from 16 planning documents</text><text fill="#000000" font-family="sans-serif" font-size="12" lengthAdjust="spacing" textLength="381.0293" x="1156" y="658.8418">Each pillar: age-banded goals + notes + events + attachments</text><text fill="#000000" font-family="sans-serif" font-size="12" lengthAdjust="spacing" textLength="508.6465" x="1156" y="672.8105">Status: Not Started &#8594; Introduced &#8594; In Progress &#8594; Practicing &#8594; Complete &#8594; Mastered</text></g><!--link dn to ci--><g id="link_dn_ci"><path d="M1046.84,269.7844 C1064,278.9944 1083.81,288.1544 1103,293.7344 C1211.42,325.2444 1243.35,309.0544 1356,316.7344 C1395.06,319.3944 1494.35,313.9944 1532,324.7344 C1561.54,333.1644 1586.6181,346.5174 1609.8881,361.4274 " fill="none" id="dn-to-ci" style="stroke:#000000;stroke-width:1;stroke-dasharray:1.0,3.0;"/><polygon fill="#000000" points="1614.94,364.6644,1609.5201,356.441,1610.7301,361.9669,1605.2041,363.1769,1614.94,364.6644" style="stroke:#000000;stroke-width:1;"/><text fill="#000000" font-family="sans-serif" font-size="12" lengthAdjust="spacing" textLength="49.6348" x="1357" y="313.873">systems</text></g><!--link dn to is_--><g id="link_dn_is_"><path d="M988.05,269.9844 C979.06,297.2944 967.786,331.5752 958.806,358.8552 " fill="none" id="dn-to-is_" style="stroke:#000000;stroke-width:1;stroke-dasharray:1.0,3.0;"/><polygon fill="#000000" points="956.93,364.5544,963.5435,357.2563,958.4934,359.8051,955.9446,354.7549,956.93,364.5544" style="stroke:#000000;stroke-width:1;"/><text fill="#000000" font-family="sans-serif" font-size="12" lengthAdjust="spacing" textLength="75.9492" x="978" y="313.873">generational</text></g><!--link sp to cf--><g id="link_sp_cf"><path d="M1415,262.9444 C1415,290.0444 1415,328.9744 1415,358.7144 " fill="none" id="sp-to-cf" style="stroke:#000000;stroke-width:1;stroke-dasharray:1.0,3.0;"/><polygon fill="#000000" points="1415,364.7144,1419,355.7144,1415,359.7144,1411,355.7144,1415,364.7144" style="stroke:#000000;stroke-width:1;"/><text fill="#000000" font-family="sans-serif" font-size="12" lengthAdjust="spacing" textLength="74.5605" x="1416" y="313.873">sacramental</text></g><!--link cf to ss--><g id="link_cf_ss"><path d="M1415,426.8044 C1415,449.4844 1415,474.4844 1415,497.2644 " fill="none" id="cf-to-ss" style="stroke:#000000;stroke-width:1;stroke-dasharray:1.0,3.0;"/><polygon fill="#000000" points="1415,503.2644,1419,494.2644,1415,498.2644,1411,494.2644,1415,503.2644" style="stroke:#000000;stroke-width:1;"/><text fill="#000000" font-family="sans-serif" font-size="12" lengthAdjust="spacing" textLength="38.502" x="1416" y="470.873">bridge</text></g><!--link fi to ec--><g id="link_fi_ec"><path d="M542.26,269.8044 C581.53,297.0944 634.2032,333.71 673.5532,361.06 " fill="none" id="fi-to-ec" style="stroke:#000000;stroke-width:1;stroke-dasharray:1.0,3.0;"/><polygon fill="#000000" points="678.48,364.4844,673.3727,356.0633,674.3743,361.6307,668.8068,362.6324,678.48,364.4844" style="stroke:#000000;stroke-width:1;"/><text fill="#000000" font-family="sans-serif" font-size="12" lengthAdjust="spacing" textLength="55.0605" x="605" y="313.873">economy</text></g><!--link ci to sm--><g id="link_ci_sm"><path d="M1657.44,426.8044 C1657.77,449.4844 1658.1305,474.485 1658.4705,497.265 " fill="none" id="ci-to-sm" style="stroke:#000000;stroke-width:1;stroke-dasharray:1.0,3.0;"/><polygon fill="#000000" points="1658.56,503.2644,1662.4252,494.2057,1658.4854,498.2649,1654.4261,494.3251,1658.56,503.2644" style="stroke:#000000;stroke-width:1;"/><text fill="#000000" font-family="sans-serif" font-size="12" lengthAdjust="spacing" textLength="54.4043" x="1659" y="470.873">evidence</text></g><!--SRC=[TLPTQnj757tVNp5r86rT2VmH6rVGWc9h6qCIH9pcfIbbj7Eb7JmxivsPbQiqWRwqJw619FIXIGbz2fGM2dtfx_4VQ7v2pvsLR5cE9P1sTtREFNFkkNVcWrXIHQ8sKjii76jRIoyhCPB5ySIxngfzPvmNr_BqMNf3qLWs9kREnYFzYCJcrli7xqh0hntHn97uyh0ZRf6PKjI5x8Y-rz9qH90sT0DvFLvRWeWw6Zf7ttllK9mP4YDdrDAefo9AEy70zvaGypLuIvuf2X5AgTo9jXCnbYOGdeoSL-JdwznFd-p94g1riSMwBCfU_cdUNuKu60os1hk0o19HSLkFIGoDjEA-1mA8dFxmKcpU40Sq9UFgYcmKGssCz27B34t8AX5TBGeCa0Vyuy_4i9I1-A8_eS3_kIiQNF0ehi59HkqiRZQwE_YzHmNfANM46q5QlXZHHDlvXC5tDQWkPknsDxVmrm_77H4fn8vGEXHk2gOBV5yjNjxSxcxkuVzceuqIXRDJNV1GErLKJf5PyBej6rkKF6clkyMi3gsY6ilZ5SkwDh112vjUFufq8hqAfQvnjxNJtUOv4Cs6IeDLxP690XUZ5FjnnaArUcLP3Mdb15P3ikcSyPgG0Ipnw5hUvs_hYZEFh9s-_ks_Vvy9iRv-L6klOoFD-lf3cqiTImufP-GxuiHvewQQJX9Ug86sFHYW82vWlNlpwlSvs7u9xnH87uCzq3usrCggiMgBwy8r7dnRVgMuDkZd-Q2_YlVsBmPB3hehftgIriIGG_85rQtmI4AWRnko1NKUsj9v_GXFX1iBRSScFKzXb4MOlNm3j9yi2JPaeiY44VkkgYcUlO_55rV9zkxDyx-PMgwjj8LkHJkqKtY0_GpVdQ3aE9MWX0nHwpO4EI5fOfa2Z7LgB7k3ZLNmdrym-40rSuDS5_lIKwjc7ykEZOA6eIOEhH-bbn2eaW6Ipn8ugRJQtSj9UldsJDIZOzHTODG3Lu6xBZgYegAKbWK1ebILjfovYOxSh60tQH8-NCxaTmQ3LVndB-Sck4T16yrwffHv2g614ojf8NoIwQ4TIstIGnHEG4yyw0_l9_nasOtynags3hbuT9n1aaDReciYxZnVEjNLbGbx-WzpkfMc0EawojDE6bmcKG4Ief-Xk42PdnjqyIa85cZaiAg17OXRoNbPbIt3FB-KlXUlETGIFqHRgcuEUDQWPAEuk3tLKdl4Y_DwRvSKlfdlFIinJd_zPIvoBYjjPcA0Ad3LZA5leXr6pMhYrmTkVIMAnp4wIMm52aYXHereNcoS-wL8aMuYqhBU-neDBeaTs7QjYTkgJIDNoltirQ8Ll0-1UNx1BPRBXowM2zgLRr9j2x13vHIpUK14sy7tigF_J0siqEoDCQBTeLWwrUeiUOcfEoEl7K5Jzabg5SVMdHXIMAQYGhP1GjNQEj-v8CFv5d1TF735kGd66BYojxxw8maWGGQz_hmhCx4ZMM1t1M4aICsB3vsmyKN9TTT4RcGWVb62yLMTz-cFIGA2NQKN34vf_Qp-eaF0n0iqXF04NrjHWzt2swHQ3SvB6nfyYCtKfFcSdo0-2iq8-_h76VffzolbOYJrTVTpJazFX1awK1LMnzZ7FR7S1pDi8XTcZtdsGXECuy7oE3ZrnCXhP2j3trmUWdDx-4d-pugBOqXdxopbMPRECYECkYfZlMxiR0gK3yHtbj07HI1Ig8-nTvNOtELpeRLyM58uRgHaOTf0OiEgqu6b9-2ExaXQdZHnE569JzA1YVznlC44NCWOCMKn_IZAs8IUkEiYNtim5QS_FKTzHE_GySzknT2x2JVDT3_VffWCt_9UPR1PfPixgU-JIYS23ly_]--></g></svg>