<svg xmlns="http://www.w3.org/2000/svg" xmlns:xlink="http://www.w3.org/1999/xlink" contentStyleType="text/css" height="568px" preserveAspectRatio="none" style="width:6831px;height:568px;background:#FEFEFE;" version="1.1" viewBox="0 0 6831 568" width="6831px" zoomAndPan="magnify"><title>Lifetime Development Map (0-35)</title><defs/><g><rect fill="#FEFEFE" height="568" style="stroke:none;stroke-width:1;" width="6831" x="0" y="0"/><text fill="#000000" font-family="Verdana" font-size="22" font-weight="bold" lengthAdjust="spacing" textLength="417.4521" x="3202.6055" y="35.4209">Lifetime Development Map (0-35)</text><text fill="#000000" font-family="Verdana" font-size="22" font-weight="bold" lengthAdjust="spacing" textLength="7.6592" x="3407.502" y="61.0303">&#160;</text><text fill="#000000" font-family="Verdana" font-size="22" font-weight="bold" lengthAdjust="spacing" textLength="696.502" x="3063.0806" y="86.6396">Male PFC matures ~25-30 | Female PFC matures ~21-24</text><text fill="#000000" font-family="Verdana" font-size="22" font-weight="bold" lengthAdjust="spacing" textLength="795.9639" x="3013.3496" y="112.249">Extending to 35 validates 5-10 years of mature-brain outcomes.</text><rect fill="none" height="128.0781" id="_legend" rx="7.5" ry="7.5" style="stroke:#000000;stroke-width:1;" width="341.4131" x="10" y="133.4375"/><text fill="#000000" font-family="Verdana" font-size="14" font-weight="bold" lengthAdjust="spacing" textLength="47.5029" x="19.874" y="153.4326">Phase</text><text fill="#000000" font-family="Verdana" font-size="14" font-weight="bold" lengthAdjust="spacing" textLength="38.6846" x="123.9102" y="153.4326">Ages</text><text fill="#000000" font-family="Verdana" font-size="14" font-weight="bold" lengthAdjust="spacing" textLength="89.0723" x="173.4912" y="153.4326">Brain State</text><text fill="#000000" font-family="Verdana" font-size="14" lengthAdjust="spacing" textLength="78.6475" x="19.4502" y="169.7295">Foundation</text><text fill="#000000" font-family="Verdana" font-size="14" lengthAdjust="spacing" textLength="22.8662" x="123.4863" y="169.7295">0-5</text><text fill="#000000" font-family="Verdana" font-size="14" lengthAdjust="spacing" textLength="153.8564" x="173.0674" y="169.7295">Rapid synaptogenesis</text><text fill="#000000" font-family="Verdana" font-size="14" lengthAdjust="spacing" textLength="79.625" x="19.4502" y="186.0264">Exploration</text><text fill="#000000" font-family="Verdana" font-size="14" lengthAdjust="spacing" textLength="31.7734" x="123.4863" y="186.0264">6-12</text><text fill="#000000" font-family="Verdana" font-size="14" lengthAdjust="spacing" textLength="168.8955" x="173.0674" y="186.0264">Pruning &amp; specialization</text><text fill="#000000" font-family="Verdana" font-size="14" lengthAdjust="spacing" textLength="71.4082" x="19.4502" y="202.3232">Formation</text><text fill="#000000" font-family="Verdana" font-size="14" lengthAdjust="spacing" textLength="40.6807" x="123.4863" y="202.3232">13-17</text><text fill="#000000" font-family="Verdana" font-size="14" lengthAdjust="spacing" textLength="127.8662" x="173.0674" y="202.3232">Limbic dominance</text><text fill="#000000" font-family="Verdana" font-size="14" lengthAdjust="spacing" textLength="50.6953" x="19.4502" y="218.6201">Launch</text><text fill="#000000" font-family="Verdana" font-size="14" lengthAdjust="spacing" textLength="40.6807" x="123.4863" y="218.6201">18-24</text><text fill="#000000" font-family="Verdana" font-size="14" lengthAdjust="spacing" textLength="108.1104" x="173.0674" y="218.6201">PFC developing</text><text fill="#000000" font-family="Verdana" font-size="14" lengthAdjust="spacing" textLength="95.1357" x="19.4502" y="234.917">Consolidation</text><text fill="#000000" font-family="Verdana" font-size="14" lengthAdjust="spacing" textLength="40.6807" x="123.4863" y="234.917">25-30</text><text fill="#000000" font-family="Verdana" font-size="14" lengthAdjust="spacing" textLength="91.8613" x="173.0674" y="234.917">PFC solidifies</text><text fill="#000000" font-family="Verdana" font-size="14" lengthAdjust="spacing" textLength="86.6045" x="19.4502" y="251.2139">Stewardship</text><text fill="#000000" font-family="Verdana" font-size="14" lengthAdjust="spacing" textLength="40.6807" x="123.4863" y="251.2139">31-35</text><text fill="#000000" font-family="Verdana" font-size="14" lengthAdjust="spacing" textLength="89.1543" x="173.0674" y="251.2139">Full maturity</text><line style="stroke:#000000;stroke-width:1;" x1="15" x2="346.4131" y1="140.4375" y2="140.4375"/><line style="stroke:#000000;stroke-width:1;" x1="15" x2="346.4131" y1="156.7344" y2="156.7344"/><line style="stroke:#000000;stroke-width:1;" x1="15" x2="346.4131" y1="173.0313" y2="173.0313"/><line style="stroke:#000000;stroke-width:1;" x1="15" x2="346.4131" y1="189.3281" y2="189.3281"/><line style="stroke:#000000;stroke-width:1;" x1="15" x2="346.4131" y1="205.625" y2="205.625"/><line style="stroke:#000000;stroke-width:1;" x1="15" x2="346.4131" y1="221.9219" y2="221.9219"/><line style="stroke:#000000;stroke-width:1;" x1="15" x2="346.4131" y1="238.2188" y2="238.2188"/><line style="stroke:#000000;stroke-width:1;" x1="15" x2="346.4131" y1="254.5156" y2="254.5156"/><line style="stroke:#000000;stroke-width:1;" x1="15" x2="15" y1="140.4375" y2="254.5156"/><line style="stroke:#000000;stroke-width:1;" x1="119.0361" x2="119.0361" y1="140.4375" y2="254.5156"/><line style="stroke:#000000;stroke-width:1;" x1="168.6172" x2="168.6172" y1="140.4375" y2="254.5156"/><line style="stroke:#000000;stroke-width:1;" x1="346.4131" x2="346.4131" y1="140.4375" y2="254.5156"/><!--cluster spiritual--><g id="cluster_spiritual"><path d="M13.5,281.5156 L168.083,281.5156 A3.75,3.75 0 0 1 170.583,284.0156 L177.583,303.8125 L959.5,303.8125 A2.5,2.5 0 0 1 962,306.3125 L962,399.0156 A2.5,2.5 0 0 1 959.5,401.5156 L13.5,401.5156 A2.5,2.5 0 0 1 11,399.0156 L11,284.0156 A2.5,2.5 0 0 1 13.5,281.5156 " fill="#FFFFFF" style="stroke:#000000;stroke-width:1;"/><line style="stroke:#000000;stroke-width:1;" x1="11" x2="177.583" y1="303.8125" y2="303.8125"/><text fill="#000000" font-family="Verdana" font-size="14" font-weight="bold" lengthAdjust="spacing" textLength="153.583" x="15" y="296.5107">Spiritual Formation</text></g><!--cluster financial--><g id="cluster_financial"><path d="M988.5,281.5156 L1170.3789,281.5156 A3.75,3.75 0 0 1 1172.8789,284.0156 L1179.8789,303.8125 L1887.5,303.8125 A2.5,2.5 0 0 1 1890,306.3125 L1890,399.0156 A2.5,2.5 0 0 1 1887.5,401.5156 L988.5,401.5156 A2.5,2.5 0 0 1 986,399.0156 L986,284.0156 A2.5,2.5 0 0 1 988.5,281.5156 " fill="#FFFFFF" style="stroke:#000000;stroke-width:1;"/><line style="stroke:#000000;stroke-width:1;" x1="986" x2="1179.8789" y1="303.8125" y2="303.8125"/><text fill="#000000" font-family="Verdana" font-size="14" font-weight="bold" lengthAdjust="spacing" textLength="180.8789" x="990" y="296.5107">Financial Development</text></g><!--cluster education--><g id="cluster_education"><path d="M1916.5,281.5156 L2070.3516,281.5156 A3.75,3.75 0 0 1 2072.8516,284.0156 L2079.8516,303.8125 L2734.5,303.8125 A2.5,2.5 0 0 1 2737,306.3125 L2737,399.0156 A2.5,2.5 0 0 1 2734.5,401.5156 L1916.5,401.5156 A2.5,2.5 0 0 1 1914,399.0156 L1914,284.0156 A2.5,2.5 0 0 1 1916.5,281.5156 " fill="#FFFFFF" style="stroke:#000000;stroke-width:1;"/><line style="stroke:#000000;stroke-width:1;" x1="1914" x2="2079.8516" y1="303.8125" y2="303.8125"/><text fill="#000000" font-family="Verdana" font-size="14" font-weight="bold" lengthAdjust="spacing" textLength="152.8516" x="1918" y="296.5107">Education &amp; Career</text></g><!--cluster character--><g id="cluster_character"><path d="M2763.5,281.5156 L2841.9307,281.5156 A3.75,3.75 0 0 1 2844.4307,284.0156 L2851.4307,303.8125 L3726.5,303.8125 A2.5,2.5 0 0 1 3729,306.3125 L3729,399.0156 A2.5,2.5 0 0 1 3726.5,401.5156 L2763.5,401.5156 A2.5,2.5 0 0 1 2761,399.0156 L2761,284.0156 A2.5,2.5 0 0 1 2763.5,281.5156 " fill="#FFFFFF" style="stroke:#000000;stroke-width:1;"/><line style="stroke:#000000;stroke-width:1;" x1="2761" x2="2851.4307" y1="303.8125" y2="303.8125"/><text fill="#000000" font-family="Verdana" font-size="14" font-weight="bold" lengthAdjust="spacing" textLength="77.4307" x="2765" y="296.5107">Character</text></g><!--cluster skills--><g id="cluster_skills"><path d="M3755.5,281.5156 L3832.8027,281.5156 A3.75,3.75 0 0 1 3835.3027,284.0156 L3842.3027,303.8125 L4545.5,303.8125 A2.5,2.5 0 0 1 4548,306.3125 L4548,399.0156 A2.5,2.5 0 0 1 4545.5,401.5156 L3755.5,401.5156 A2.5,2.5 0 0 1 3753,399.0156 L3753,284.0156 A2.5,2.5 0 0 1 3755.5,281.5156 " fill="#FFFFFF" style="stroke:#000000;stroke-width:1;"/><line style="stroke:#000000;stroke-width:1;" x1="3753" x2="3842.3027" y1="303.8125" y2="303.8125"/><text fill="#000000" font-family="Verdana" font-size="14" font-weight="bold" lengthAdjust="spacing" textLength="76.3027" x="3757" y="296.5107">Life Skills</text></g><!--cluster heritage--><g id="cluster_heritage"><path d="M4574.5,281.5156 L4728.0303,281.5156 A3.75,3.75 0 0 1 4730.5303,284.0156 L4737.5303,303.8125 L5469.5,303.8125 A2.5,2.5 0 0 1 5472,306.3125 L5472,399.0156 A2.5,2.5 0 0 1 5469.5,401.5156 L4574.5,401.5156 A2.5,2.5 0 0 1 4572,399.0156 L4572,284.0156 A2.5,2.5 0 0 1 4574.5,281.5156 " fill="#FFFFFF" style="stroke:#000000;stroke-width:1;"/><line style="stroke:#000000;stroke-width:1;" x1="4572" x2="4737.5303" y1="303.8125" y2="303.8125"/><text fill="#000000" font-family="Verdana" font-size="14" font-weight="bold" lengthAdjust="spacing" textLength="152.5303" x="4576" y="296.5107">Heritage &amp; Identity</text></g><!--cluster navigation--><g id="cluster_navigation"><path d="M5498.5,273.5156 L5619.3135,273.5156 A3.75,3.75 0 0 1 5621.8135,276.0156 L5628.8135,295.8125 L6538.5,295.8125 A2.5,2.5 0 0 1 6541,298.3125 L6541,407.0156 A2.5,2.5 0 0 1 6538.5,409.5156 L5498.5,409.5156 A2.5,2.5 0 0 1 5496,407.0156 L5496,276.0156 A2.5,2.5 0 0 1 5498.5,273.5156 " fill="#FFFFFF" style="stroke:#000000;stroke-width:1;"/><line style="stroke:#000000;stroke-width:1;" x1="5496" x2="5628.8135" y1="295.8125" y2="295.8125"/><text fill="#000000" font-family="Verdana" font-size="14" font-weight="bold" lengthAdjust="spacing" textLength="119.8135" x="5500" y="288.5107">Life Navigation</text></g><!--entity s1--><g id="elem_s1"><rect fill="#FFFFFF" height="68.8906" rx="2.5" ry="2.5" style="stroke:#000000;stroke-width:1;" width="148.0508" x="27" y="316.5156"/><text fill="#000000" font-family="Verdana" font-size="14" lengthAdjust="spacing" textLength="22.8662" x="37" y="339.5107">0-5</text><text fill="#000000" font-family="Verdana" font-size="14" lengthAdjust="spacing" textLength="128.0508" x="37" y="355.8076">Prayers, Gratitude</text><text fill="#000000" font-family="Verdana" font-size="14" lengthAdjust="spacing" textLength="84.123" x="37" y="372.1045">Forgiveness</text></g><!--entity s2--><g id="elem_s2"><rect fill="#FFFFFF" height="68.8906" rx="2.5" ry="2.5" style="stroke:#000000;stroke-width:1;" width="142.5547" x="210.5" y="316.5156"/><text fill="#000000" font-family="Verdana" font-size="14" lengthAdjust="spacing" textLength="31.7734" x="220.5" y="339.5107">6-12</text><text fill="#000000" font-family="Verdana" font-size="14" lengthAdjust="spacing" textLength="122.5547" x="220.5" y="355.8076">Scripture, History</text><text fill="#000000" font-family="Verdana" font-size="14" lengthAdjust="spacing" textLength="105.0479" x="220.5" y="372.1045">World religions</text></g><!--entity s3--><g id="elem_s3"><rect fill="#FFFFFF" height="68.8906" rx="2.5" ry="2.5" style="stroke:#000000;stroke-width:1;" width="135.2197" x="388.5" y="316.5156"/><text fill="#000000" font-family="Verdana" font-size="14" lengthAdjust="spacing" textLength="40.6807" x="398.5" y="339.5107">13-17</text><text fill="#000000" font-family="Verdana" font-size="14" lengthAdjust="spacing" textLength="115.2197" x="398.5" y="355.8076">Theology, Ethics</text><text fill="#000000" font-family="Verdana" font-size="14" lengthAdjust="spacing" textLength="81.3545" x="398.5" y="372.1045">Apologetics</text></g><!--entity s4--><g id="elem_s4"><rect fill="#FFFFFF" height="68.8906" rx="2.5" ry="2.5" style="stroke:#000000;stroke-width:1;" width="179.1475" x="558.5" y="316.5156"/><text fill="#000000" font-family="Verdana" font-size="14" lengthAdjust="spacing" textLength="40.6807" x="568.5" y="339.5107">18-24</text><text fill="#000000" font-family="Verdana" font-size="14" lengthAdjust="spacing" textLength="149.7959" x="568.5" y="355.8076">Independent practice</text><text fill="#000000" font-family="Verdana" font-size="14" lengthAdjust="spacing" textLength="159.1475" x="568.5" y="372.1045">Competing worldviews</text></g><!--entity s5--><g id="elem_s5"><rect fill="#FFFFFF" height="68.8906" rx="2.5" ry="2.5" style="stroke:#000000;stroke-width:1;" width="173.1797" x="772.5" y="316.5156"/><text fill="#000000" font-family="Verdana" font-size="14" lengthAdjust="spacing" textLength="40.6807" x="782.5" y="339.5107">25-35</text><text fill="#000000" font-family="Verdana" font-size="14" lengthAdjust="spacing" textLength="153.1797" x="782.5" y="355.8076">Examined convictions</text><text fill="#000000" font-family="Verdana" font-size="14" lengthAdjust="spacing" textLength="135.8711" x="782.5" y="372.1045">Spiritual leadership</text></g><!--entity f1--><g id="elem_f1"><rect fill="#FFFFFF" height="68.8906" rx="2.5" ry="2.5" style="stroke:#000000;stroke-width:1;" width="130.3115" x="1002" y="316.5156"/><text fill="#000000" font-family="Verdana" font-size="14" lengthAdjust="spacing" textLength="22.8662" x="1012" y="339.5107">0-5</text><text fill="#000000" font-family="Verdana" font-size="14" lengthAdjust="spacing" textLength="110.3115" x="1012" y="355.8076">529 Plan, UTMA</text><text fill="#000000" font-family="Verdana" font-size="14" lengthAdjust="spacing" textLength="77.3691" x="1012" y="372.1045">Savings jar</text></g><!--entity f2--><g id="elem_f2"><rect fill="#FFFFFF" height="68.8906" rx="2.5" ry="2.5" style="stroke:#000000;stroke-width:1;" width="157.4844" x="1167.5" y="316.5156"/><text fill="#000000" font-family="Verdana" font-size="14" lengthAdjust="spacing" textLength="31.7734" x="1177.5" y="339.5107">6-12</text><text fill="#000000" font-family="Verdana" font-size="14" lengthAdjust="spacing" textLength="134.5313" x="1177.5" y="355.8076">Compound interest</text><text fill="#000000" font-family="Verdana" font-size="14" lengthAdjust="spacing" textLength="137.4844" x="1177.5" y="372.1045">Stocks/Bonds/Index</text></g><!--entity f3--><g id="elem_f3"><rect fill="#FFFFFF" height="68.8906" rx="2.5" ry="2.5" style="stroke:#000000;stroke-width:1;" width="130.6396" x="1359.5" y="316.5156"/><text fill="#000000" font-family="Verdana" font-size="14" lengthAdjust="spacing" textLength="40.6807" x="1369.5" y="339.5107">13-17</text><text fill="#000000" font-family="Verdana" font-size="14" lengthAdjust="spacing" textLength="110.6396" x="1369.5" y="355.8076">Sector research</text><text fill="#000000" font-family="Verdana" font-size="14" lengthAdjust="spacing" textLength="99.5723" x="1369.5" y="372.1045">Roth IRA, DCA</text></g><!--entity f4--><g id="elem_f4"><rect fill="#FFFFFF" height="68.8906" rx="2.5" ry="2.5" style="stroke:#000000;stroke-width:1;" width="150.5391" x="1525.5" y="316.5156"/><text fill="#000000" font-family="Verdana" font-size="14" lengthAdjust="spacing" textLength="40.6807" x="1535.5" y="339.5107">18-24</text><text fill="#000000" font-family="Verdana" font-size="14" lengthAdjust="spacing" textLength="96.5508" x="1535.5" y="355.8076">Market cycles</text><text fill="#000000" font-family="Verdana" font-size="14" lengthAdjust="spacing" textLength="130.5391" x="1535.5" y="372.1045">Behavioral finance</text></g><!--entity f5--><g id="elem_f5"><rect fill="#FFFFFF" height="68.8906" rx="2.5" ry="2.5" style="stroke:#000000;stroke-width:1;" width="161.9141" x="1712" y="316.5156"/><text fill="#000000" font-family="Verdana" font-size="14" lengthAdjust="spacing" textLength="40.6807" x="1722" y="339.5107">25-35</text><text fill="#000000" font-family="Verdana" font-size="14" lengthAdjust="spacing" textLength="104.4053" x="1722" y="355.8076">Tax harvesting</text><text fill="#000000" font-family="Verdana" font-size="14" lengthAdjust="spacing" textLength="141.9141" x="1722" y="372.1045">Generational wealth</text></g><!--entity e1--><g id="elem_e1"><rect fill="#FFFFFF" height="68.8906" rx="2.5" ry="2.5" style="stroke:#000000;stroke-width:1;" width="115.0195" x="1930.5" y="316.5156"/><text fill="#000000" font-family="Verdana" font-size="14" lengthAdjust="spacing" textLength="22.8662" x="1940.5" y="339.5107">0-5</text><text fill="#000000" font-family="Verdana" font-size="14" lengthAdjust="spacing" textLength="95.0195" x="1940.5" y="355.8076">Expose, track</text><text fill="#000000" font-family="Verdana" font-size="14" lengthAdjust="spacing" textLength="88.6279" x="1940.5" y="372.1045">interests 1-5</text></g><!--entity e2--><g id="elem_e2"><rect fill="#FFFFFF" height="68.8906" rx="2.5" ry="2.5" style="stroke:#000000;stroke-width:1;" width="123.8105" x="2081" y="316.5156"/><text fill="#000000" font-family="Verdana" font-size="14" lengthAdjust="spacing" textLength="31.7734" x="2091" y="339.5107">6-12</text><text fill="#000000" font-family="Verdana" font-size="14" lengthAdjust="spacing" textLength="103.8105" x="2091" y="355.8076">Clubs, projects</text><text fill="#000000" font-family="Verdana" font-size="14" lengthAdjust="spacing" textLength="92.9688" x="2091" y="372.1045">Competitions</text></g><!--entity e3--><g id="elem_e3"><rect fill="#FFFFFF" height="68.8906" rx="2.5" ry="2.5" style="stroke:#000000;stroke-width:1;" width="171.1973" x="2240.5" y="316.5156"/><text fill="#000000" font-family="Verdana" font-size="14" lengthAdjust="spacing" textLength="40.6807" x="2250.5" y="339.5107">13-17</text><text fill="#000000" font-family="Verdana" font-size="14" lengthAdjust="spacing" textLength="151.1973" x="2250.5" y="355.8076">Aptitudes, shadowing</text><text fill="#000000" font-family="Verdana" font-size="14" lengthAdjust="spacing" textLength="77.9707" x="2250.5" y="372.1045">Internships</text></g><!--entity e4--><g id="elem_e4"><rect fill="#FFFFFF" height="68.8906" rx="2.5" ry="2.5" style="stroke:#000000;stroke-width:1;" width="141.2695" x="2446.5" y="316.5156"/><text fill="#000000" font-family="Verdana" font-size="14" lengthAdjust="spacing" textLength="40.6807" x="2456.5" y="339.5107">18-24</text><text fill="#000000" font-family="Verdana" font-size="14" lengthAdjust="spacing" textLength="114.4336" x="2456.5" y="355.8076">Degree / Trade /</text><text fill="#000000" font-family="Verdana" font-size="14" lengthAdjust="spacing" textLength="121.2695" x="2456.5" y="372.1045">Military / Venture</text></g><!--entity e5--><g id="elem_e5"><rect fill="#FFFFFF" height="68.8906" rx="2.5" ry="2.5" style="stroke:#000000;stroke-width:1;" width="98.3193" x="2623" y="316.5156"/><text fill="#000000" font-family="Verdana" font-size="14" lengthAdjust="spacing" textLength="40.6807" x="2633" y="339.5107">25-35</text><text fill="#000000" font-family="Verdana" font-size="14" lengthAdjust="spacing" textLength="56.0957" x="2633" y="355.8076">Mastery</text><text fill="#000000" font-family="Verdana" font-size="14" lengthAdjust="spacing" textLength="78.3193" x="2633" y="372.1045">Mentorship</text></g><!--entity c1--><g id="elem_c1"><rect fill="#FFFFFF" height="68.8906" rx="2.5" ry="2.5" style="stroke:#000000;stroke-width:1;" width="149.4521" x="2776.5" y="316.5156"/><text fill="#000000" font-family="Verdana" font-size="14" lengthAdjust="spacing" textLength="22.8662" x="2786.5" y="339.5107">0-5</text><text fill="#000000" font-family="Verdana" font-size="14" lengthAdjust="spacing" textLength="97.4736" x="2786.5" y="355.8076">Responsibility</text><text fill="#000000" font-family="Verdana" font-size="14" lengthAdjust="spacing" textLength="129.4521" x="2786.5" y="372.1045">Honesty, Kindness</text></g><!--entity c2--><g id="elem_c2"><rect fill="#FFFFFF" height="68.8906" rx="2.5" ry="2.5" style="stroke:#000000;stroke-width:1;" width="155.6523" x="2961" y="316.5156"/><text fill="#000000" font-family="Verdana" font-size="14" lengthAdjust="spacing" textLength="31.7734" x="2971" y="339.5107">6-12</text><text fill="#000000" font-family="Verdana" font-size="14" lengthAdjust="spacing" textLength="135.6523" x="2971" y="355.8076">Courage, Discipline</text><text fill="#000000" font-family="Verdana" font-size="14" lengthAdjust="spacing" textLength="110.3936" x="2971" y="372.1045">First case study</text></g><!--entity c3--><g id="elem_c3"><rect fill="#FFFFFF" height="68.8906" rx="2.5" ry="2.5" style="stroke:#000000;stroke-width:1;" width="153.5127" x="3152" y="316.5156"/><text fill="#000000" font-family="Verdana" font-size="14" lengthAdjust="spacing" textLength="40.6807" x="3162" y="339.5107">13-17</text><text fill="#000000" font-family="Verdana" font-size="14" lengthAdjust="spacing" textLength="117.4004" x="3162" y="355.8076">Integrity, MLK vs</text><text fill="#000000" font-family="Verdana" font-size="14" lengthAdjust="spacing" textLength="133.5127" x="3162" y="372.1045">Malcolm X analysis</text></g><!--entity c4--><g id="elem_c4"><rect fill="#FFFFFF" height="68.8906" rx="2.5" ry="2.5" style="stroke:#000000;stroke-width:1;" width="169.8711" x="3341" y="316.5156"/><text fill="#000000" font-family="Verdana" font-size="14" lengthAdjust="spacing" textLength="40.6807" x="3351" y="339.5107">18-24</text><text fill="#000000" font-family="Verdana" font-size="14" lengthAdjust="spacing" textLength="71.1006" x="3351" y="355.8076">Resilience</text><text fill="#000000" font-family="Verdana" font-size="14" lengthAdjust="spacing" textLength="149.8711" x="3351" y="372.1045">Independent analysis</text></g><!--entity c5--><g id="elem_c5"><rect fill="#FFFFFF" height="68.8906" rx="2.5" ry="2.5" style="stroke:#000000;stroke-width:1;" width="166.8496" x="3546.5" y="316.5156"/><text fill="#000000" font-family="Verdana" font-size="14" lengthAdjust="spacing" textLength="40.6807" x="3556.5" y="339.5107">25-35</text><text fill="#000000" font-family="Verdana" font-size="14" lengthAdjust="spacing" textLength="132.4053" x="3556.5" y="355.8076">Wisdom, Judgment</text><text fill="#000000" font-family="Verdana" font-size="14" lengthAdjust="spacing" textLength="146.8496" x="3556.5" y="372.1045">Character leadership</text></g><!--entity k1--><g id="elem_k1"><rect fill="#FFFFFF" height="68.8906" rx="2.5" ry="2.5" style="stroke:#000000;stroke-width:1;" width="82.0156" x="3769" y="316.5156"/><text fill="#000000" font-family="Verdana" font-size="14" lengthAdjust="spacing" textLength="22.8662" x="3779" y="339.5107">0-5</text><text fill="#000000" font-family="Verdana" font-size="14" lengthAdjust="spacing" textLength="62.0156" x="3779" y="355.8076">Self-care</text><text fill="#000000" font-family="Verdana" font-size="14" lengthAdjust="spacing" textLength="61.3252" x="3779" y="372.1045">Routines</text></g><!--entity k2--><g id="elem_k2"><rect fill="#FFFFFF" height="68.8906" rx="2.5" ry="2.5" style="stroke:#000000;stroke-width:1;" width="81.3799" x="3886.5" y="316.5156"/><text fill="#000000" font-family="Verdana" font-size="14" lengthAdjust="spacing" textLength="31.7734" x="3896.5" y="339.5107">6-12</text><text fill="#000000" font-family="Verdana" font-size="14" lengthAdjust="spacing" textLength="56.6631" x="3896.5" y="355.8076">Cooking</text><text fill="#000000" font-family="Verdana" font-size="14" lengthAdjust="spacing" textLength="61.3799" x="3896.5" y="372.1045">Cleaning</text></g><!--entity k3--><g id="elem_k3"><rect fill="#FFFFFF" height="68.8906" rx="2.5" ry="2.5" style="stroke:#000000;stroke-width:1;" width="140.5723" x="4002.5" y="316.5156"/><text fill="#000000" font-family="Verdana" font-size="14" lengthAdjust="spacing" textLength="40.6807" x="4012.5" y="339.5107">13-17</text><text fill="#000000" font-family="Verdana" font-size="14" lengthAdjust="spacing" textLength="115.5479" x="4012.5" y="355.8076">Driving, First aid</text><text fill="#000000" font-family="Verdana" font-size="14" lengthAdjust="spacing" textLength="120.5723" x="4012.5" y="372.1045">Cyber, AI literacy</text></g><!--entity k4--><g id="elem_k4"><rect fill="#FFFFFF" height="68.8906" rx="2.5" ry="2.5" style="stroke:#000000;stroke-width:1;" width="138.9111" x="4178.5" y="316.5156"/><text fill="#000000" font-family="Verdana" font-size="14" lengthAdjust="spacing" textLength="40.6807" x="4188.5" y="339.5107">18-24</text><text fill="#000000" font-family="Verdana" font-size="14" lengthAdjust="spacing" textLength="118.9111" x="4188.5" y="355.8076">Taxes, Insurance</text><text fill="#000000" font-family="Verdana" font-size="14" lengthAdjust="spacing" textLength="115.8008" x="4188.5" y="372.1045">Emergency prep</text></g><!--entity k5--><g id="elem_k5"><rect fill="#FFFFFF" height="68.8906" rx="2.5" ry="2.5" style="stroke:#000000;stroke-width:1;" width="178.7578" x="4352.5" y="316.5156"/><text fill="#000000" font-family="Verdana" font-size="14" lengthAdjust="spacing" textLength="40.6807" x="4362.5" y="339.5107">25-35</text><text fill="#000000" font-family="Verdana" font-size="14" lengthAdjust="spacing" textLength="109.5117" x="4362.5" y="355.8076">Estate planning</text><text fill="#000000" font-family="Verdana" font-size="14" lengthAdjust="spacing" textLength="158.7578" x="4362.5" y="372.1045">Community leadership</text></g><!--entity h1--><g id="elem_h1"><rect fill="#FFFFFF" height="52.5938" rx="2.5" ry="2.5" style="stroke:#000000;stroke-width:1;" width="117.6855" x="4588" y="324.5156"/><text fill="#000000" font-family="Verdana" font-size="14" lengthAdjust="spacing" textLength="22.8662" x="4598" y="347.5107">0-5</text><text fill="#000000" font-family="Verdana" font-size="14" lengthAdjust="spacing" textLength="97.6855" x="4598" y="363.8076">Family stories</text></g><!--entity h2--><g id="elem_h2"><rect fill="#FFFFFF" height="68.8906" rx="2.5" ry="2.5" style="stroke:#000000;stroke-width:1;" width="121.5615" x="4741" y="316.5156"/><text fill="#000000" font-family="Verdana" font-size="14" lengthAdjust="spacing" textLength="31.7734" x="4751" y="339.5107">6-12</text><text fill="#000000" font-family="Verdana" font-size="14" lengthAdjust="spacing" textLength="79.2559" x="4751" y="355.8076">Family tree</text><text fill="#000000" font-family="Verdana" font-size="14" lengthAdjust="spacing" textLength="101.5615" x="4751" y="372.1045">Migration map</text></g><!--entity h3--><g id="elem_h3"><rect fill="#FFFFFF" height="68.8906" rx="2.5" ry="2.5" style="stroke:#000000;stroke-width:1;" width="147.4971" x="4898.5" y="316.5156"/><text fill="#000000" font-family="Verdana" font-size="14" lengthAdjust="spacing" textLength="40.6807" x="4908.5" y="339.5107">13-17</text><text fill="#000000" font-family="Verdana" font-size="14" lengthAdjust="spacing" textLength="127.4971" x="4908.5" y="355.8076">Ancestor research</text><text fill="#000000" font-family="Verdana" font-size="14" lengthAdjust="spacing" textLength="98.0342" x="4908.5" y="372.1045">Faith heritage</text></g><!--entity h4--><g id="elem_h4"><rect fill="#FFFFFF" height="68.8906" rx="2.5" ry="2.5" style="stroke:#000000;stroke-width:1;" width="185.6826" x="5081" y="316.5156"/><text fill="#000000" font-family="Verdana" font-size="14" lengthAdjust="spacing" textLength="40.6807" x="5091" y="339.5107">18-24</text><text fill="#000000" font-family="Verdana" font-size="14" lengthAdjust="spacing" textLength="123.04" x="5091" y="355.8076">Historical context</text><text fill="#000000" font-family="Verdana" font-size="14" lengthAdjust="spacing" textLength="165.6826" x="5091" y="372.1045">Lessons from ancestors</text></g><!--entity h5--><g id="elem_h5"><rect fill="#FFFFFF" height="68.8906" rx="2.5" ry="2.5" style="stroke:#000000;stroke-width:1;" width="153.0137" x="5302.5" y="316.5156"/><text fill="#000000" font-family="Verdana" font-size="14" lengthAdjust="spacing" textLength="40.6807" x="5312.5" y="339.5107">25-35</text><text fill="#000000" font-family="Verdana" font-size="14" lengthAdjust="spacing" textLength="133.0137" x="5312.5" y="355.8076">Active stewardship</text><text fill="#000000" font-family="Verdana" font-size="14" lengthAdjust="spacing" textLength="111.7744" x="5312.5" y="372.1045">Legacy creation</text></g><!--entity n1--><g id="elem_n1"><rect fill="#FFFFFF" height="85.1875" rx="2.5" ry="2.5" style="stroke:#000000;stroke-width:1;" width="177.2607" x="5511.5" y="308.5156"/><text fill="#000000" font-family="Verdana" font-size="14" lengthAdjust="spacing" textLength="22.8662" x="5521.5" y="331.5107">0-5</text><text fill="#000000" font-family="Verdana" font-size="14" lengthAdjust="spacing" textLength="138.1885" x="5521.5" y="347.8076">Object permanence</text><text fill="#000000" font-family="Verdana" font-size="14" lengthAdjust="spacing" textLength="103.2227" x="5521.5" y="364.1045">Cause &amp; effect</text><text fill="#000000" font-family="Verdana" font-size="14" lengthAdjust="spacing" textLength="157.2607" x="5521.5" y="380.4014">"What happens next?"</text></g><!--entity n2--><g id="elem_n2"><rect fill="#FFFFFF" height="85.1875" rx="2.5" ry="2.5" style="stroke:#000000;stroke-width:1;" width="181.9912" x="5724" y="308.5156"/><text fill="#000000" font-family="Verdana" font-size="14" lengthAdjust="spacing" textLength="31.7734" x="5734" y="331.5107">6-12</text><text fill="#000000" font-family="Verdana" font-size="14" lengthAdjust="spacing" textLength="161.9912" x="5734" y="347.8076">Delayed consequences</text><text fill="#000000" font-family="Verdana" font-size="14" lengthAdjust="spacing" textLength="113.5381" x="5734" y="364.1045">System thinking</text><text fill="#000000" font-family="Verdana" font-size="14" lengthAdjust="spacing" textLength="135.1602" x="5734" y="380.4014">Walls of perception</text></g><!--entity n3--><g id="elem_n3"><rect fill="#FFFFFF" height="85.1875" rx="2.5" ry="2.5" style="stroke:#000000;stroke-width:1;" width="177.7256" x="5941" y="308.5156"/><text fill="#000000" font-family="Verdana" font-size="14" lengthAdjust="spacing" textLength="40.6807" x="5951" y="331.5107">13-17</text><text fill="#000000" font-family="Verdana" font-size="14" lengthAdjust="spacing" textLength="123.5527" x="5951" y="347.8076">Navigation model</text><text fill="#000000" font-family="Verdana" font-size="14" lengthAdjust="spacing" textLength="133.8955" x="5951" y="364.1045">Radius of influence</text><text fill="#000000" font-family="Verdana" font-size="14" lengthAdjust="spacing" textLength="157.7256" x="5951" y="380.4014">Course correction cost</text></g><!--entity n4--><g id="elem_n4"><rect fill="#FFFFFF" height="85.1875" rx="2.5" ry="2.5" style="stroke:#000000;stroke-width:1;" width="182.2646" x="6154" y="308.5156"/><text fill="#000000" font-family="Verdana" font-size="14" lengthAdjust="spacing" textLength="40.6807" x="6164" y="331.5107">18-24</text><text fill="#000000" font-family="Verdana" font-size="14" lengthAdjust="spacing" textLength="104.5488" x="6164" y="347.8076">Full framework</text><text fill="#000000" font-family="Verdana" font-size="14" lengthAdjust="spacing" textLength="162.2646" x="6164" y="364.1045">3rd/4th order influence</text><text fill="#000000" font-family="Verdana" font-size="14" lengthAdjust="spacing" textLength="128.7344" x="6164" y="380.4014">Presence principle</text></g><!--entity n5--><g id="elem_n5"><rect fill="#FFFFFF" height="85.1875" rx="2.5" ry="2.5" style="stroke:#000000;stroke-width:1;" width="153.998" x="6371" y="308.5156"/><text fill="#000000" font-family="Verdana" font-size="14" lengthAdjust="spacing" textLength="40.6807" x="6381" y="331.5107">25-35</text><text fill="#000000" font-family="Verdana" font-size="14" lengthAdjust="spacing" textLength="133.998" x="6381" y="347.8076">5th order influence</text><text fill="#000000" font-family="Verdana" font-size="14" lengthAdjust="spacing" textLength="106.3672" x="6381" y="364.1045">Eternal horizon</text><text fill="#000000" font-family="Verdana" font-size="14" lengthAdjust="spacing" textLength="122.1582" x="6381" y="380.4014">Teach framework</text></g><g id="elem_GMN72"><path d="M6071.5,453.5156 L6071.5,561.2969 A0,0 0 0 0 6071.5,561.2969 L6824.6631,561.2969 A0,0 0 0 0 6824.6631,561.2969 L6824.6631,463.5156 L6814.6631,453.5156 L6452,453.5156 L6448,393.8256 L6444,453.5156 L6071.5,453.5156 A0,0 0 0 0 6071.5,453.5156 " fill="#FFFFFF" style="stroke:#000000;stroke-width:1;"/><path d="M6814.6631,453.5156 L6814.6631,463.5156 L6824.6631,463.5156 L6814.6631,453.5156 " fill="#FFFFFF" style="stroke:#000000;stroke-width:1;"/><text fill="#000000" font-family="Verdana" font-size="14" font-weight="bold" lengthAdjust="spacing" textLength="91.2871" x="6077.5" y="471.5107">Core Metric</text><text fill="#000000" font-family="Verdana" font-size="14" lengthAdjust="spacing" textLength="514.124" x="6168.7871" y="471.5107">: "Is this child becoming a wise, capable, kind, and independent person?"</text><text fill="#000000" font-family="Verdana" font-size="14" lengthAdjust="spacing" textLength="4.4502" x="6077.5" y="487.8076">&#160;</text><text fill="#000000" font-family="Verdana" font-size="14" font-weight="bold" lengthAdjust="spacing" textLength="156.9668" x="6077.5" y="504.1045">Navigational Forces</text><text fill="#000000" font-family="Verdana" font-size="14" lengthAdjust="spacing" textLength="184.502" x="6238.917" y="504.1045">(operate within all pillars):</text><text fill="#000000" font-family="Verdana" font-size="14" lengthAdjust="spacing" textLength="550.1836" x="6077.5" y="520.4014">Position &#183; Azimuth &#183; Velocity &#183; Acceleration &#183; Current &#183; Time &#183; Course Correction</text><text fill="#000000" font-family="Verdana" font-size="14" lengthAdjust="spacing" textLength="4.4502" x="6077.5" y="536.6982">&#160;</text><text fill="#000000" font-family="Verdana" font-size="14" font-weight="bold" lengthAdjust="spacing" textLength="91.5195" x="6077.5" y="552.9951">Dimensions</text><text fill="#000000" font-family="Verdana" font-size="14" lengthAdjust="spacing" textLength="636.1934" x="6173.4697" y="552.9951">(degrees of freedom): Knowledge &#183; Character &#183; Faith &#183; Relationships &#183; Stewardship &#183; Legacy</text></g><!--link s1 to s2--><g id="link_s1_s2"><path d="M175.24,351.0156 C186.92,351.0156 192.59,351.0156 204.27,351.0156 " fill="none" id="s1-to-s2" style="stroke:#000000;stroke-width:1;"/><polygon fill="#000000" points="210.27,351.0156,201.27,347.0156,205.27,351.0156,201.27,355.0156,210.27,351.0156" style="stroke:#000000;stroke-width:1;"/></g><!--link s2 to s3--><g id="link_s2_s3"><path d="M353.71,351.0156 C365.29,351.0156 370.88,351.0156 382.47,351.0156 " fill="none" id="s2-to-s3" style="stroke:#000000;stroke-width:1;"/><polygon fill="#000000" points="388.47,351.0156,379.47,347.0156,383.47,351.0156,379.47,355.0156,388.47,351.0156" style="stroke:#000000;stroke-width:1;"/></g><!--link s3 to s4--><g id="link_s3_s4"><path d="M523.88,351.0156 C535.35,351.0156 540.83,351.0156 552.3,351.0156 " fill="none" id="s3-to-s4" style="stroke:#000000;stroke-width:1;"/><polygon fill="#000000" points="558.3,351.0156,549.3,347.0156,553.3,351.0156,549.3,355.0156,558.3,351.0156" style="stroke:#000000;stroke-width:1;"/></g><!--link s4 to s5--><g id="link_s4_s5"><path d="M737.84,351.0156 C749.36,351.0156 754.87,351.0156 766.39,351.0156 " fill="none" id="s4-to-s5" style="stroke:#000000;stroke-width:1;"/><polygon fill="#000000" points="772.39,351.0156,763.39,347.0156,767.39,351.0156,763.39,355.0156,772.39,351.0156" style="stroke:#000000;stroke-width:1;"/></g><!--link f1 to f2--><g id="link_f1_f2"><path d="M1132.03,351.0156 C1143.75,351.0156 1149.47,351.0156 1161.2,351.0156 " fill="none" id="f1-to-f2" style="stroke:#000000;stroke-width:1;"/><polygon fill="#000000" points="1167.2,351.0156,1158.2,347.0156,1162.2,351.0156,1158.2,355.0156,1167.2,351.0156" style="stroke:#000000;stroke-width:1;"/></g><!--link f2 to f3--><g id="link_f2_f3"><path d="M1324.66,351.0156 C1336.16,351.0156 1341.66,351.0156 1353.15,351.0156 " fill="none" id="f2-to-f3" style="stroke:#000000;stroke-width:1;"/><polygon fill="#000000" points="1359.15,351.0156,1350.15,347.0156,1354.15,351.0156,1350.15,355.0156,1359.15,351.0156" style="stroke:#000000;stroke-width:1;"/></g><!--link f3 to f4--><g id="link_f3_f4"><path d="M1490.66,351.0156 C1502.15,351.0156 1507.64,351.0156 1519.14,351.0156 " fill="none" id="f3-to-f4" style="stroke:#000000;stroke-width:1;"/><polygon fill="#000000" points="1525.14,351.0156,1516.14,347.0156,1520.14,351.0156,1516.14,355.0156,1525.14,351.0156" style="stroke:#000000;stroke-width:1;"/></g><!--link f4 to f5--><g id="link_f4_f5"><path d="M1676.75,351.0156 C1688.41,351.0156 1694.06,351.0156 1705.72,351.0156 " fill="none" id="f4-to-f5" style="stroke:#000000;stroke-width:1;"/><polygon fill="#000000" points="1711.72,351.0156,1702.72,347.0156,1706.72,351.0156,1702.72,355.0156,1711.72,351.0156" style="stroke:#000000;stroke-width:1;"/></g><!--link e1 to e2--><g id="link_e1_e2"><path d="M2045.52,351.0156 C2057.32,351.0156 2063.13,351.0156 2074.93,351.0156 " fill="none" id="e1-to-e2" style="stroke:#000000;stroke-width:1;"/><polygon fill="#000000" points="2080.93,351.0156,2071.93,347.0156,2075.93,351.0156,2071.93,355.0156,2080.93,351.0156" style="stroke:#000000;stroke-width:1;"/></g><!--link e2 to e3--><g id="link_e2_e3"><path d="M2205.19,351.0156 C2216.83,351.0156 2222.47,351.0156 2234.11,351.0156 " fill="none" id="e2-to-e3" style="stroke:#000000;stroke-width:1;"/><polygon fill="#000000" points="2240.11,351.0156,2231.11,347.0156,2235.11,351.0156,2231.11,355.0156,2240.11,351.0156" style="stroke:#000000;stroke-width:1;"/></g><!--link e3 to e4--><g id="link_e3_e4"><path d="M2411.8,351.0156 C2423.31,351.0156 2428.81,351.0156 2440.32,351.0156 " fill="none" id="e3-to-e4" style="stroke:#000000;stroke-width:1;"/><polygon fill="#000000" points="2446.32,351.0156,2437.32,347.0156,2441.32,351.0156,2437.32,355.0156,2446.32,351.0156" style="stroke:#000000;stroke-width:1;"/></g><!--link e4 to e5--><g id="link_e4_e5"><path d="M2587.54,351.0156 C2599.3,351.0156 2605.07,351.0156 2616.84,351.0156 " fill="none" id="e4-to-e5" style="stroke:#000000;stroke-width:1;"/><polygon fill="#000000" points="2622.84,351.0156,2613.84,347.0156,2617.84,351.0156,2613.84,355.0156,2622.84,351.0156" style="stroke:#000000;stroke-width:1;"/></g><!--link c1 to c2--><g id="link_c1_c2"><path d="M2925.54,351.0156 C2937.36,351.0156 2943.18,351.0156 2955,351.0156 " fill="none" id="c1-to-c2" style="stroke:#000000;stroke-width:1;"/><polygon fill="#000000" points="2961,351.0156,2952,347.0156,2956,351.0156,2952,355.0156,2961,351.0156" style="stroke:#000000;stroke-width:1;"/></g><!--link c2 to c3--><g id="link_c2_c3"><path d="M3117.3,351.0156 C3128.79,351.0156 3134.28,351.0156 3145.77,351.0156 " fill="none" id="c2-to-c3" style="stroke:#000000;stroke-width:1;"/><polygon fill="#000000" points="3151.77,351.0156,3142.77,347.0156,3146.77,351.0156,3142.77,355.0156,3151.77,351.0156" style="stroke:#000000;stroke-width:1;"/></g><!--link c3 to c4--><g id="link_c3_c4"><path d="M3306.34,351.0156 C3317.87,351.0156 3323.4,351.0156 3334.93,351.0156 " fill="none" id="c3-to-c4" style="stroke:#000000;stroke-width:1;"/><polygon fill="#000000" points="3340.93,351.0156,3331.93,347.0156,3335.93,351.0156,3331.93,355.0156,3340.93,351.0156" style="stroke:#000000;stroke-width:1;"/></g><!--link c4 to c5--><g id="link_c4_c5"><path d="M3511.27,351.0156 C3522.86,351.0156 3528.46,351.0156 3540.05,351.0156 " fill="none" id="c4-to-c5" style="stroke:#000000;stroke-width:1;"/><polygon fill="#000000" points="3546.05,351.0156,3537.05,347.0156,3541.05,351.0156,3537.05,355.0156,3546.05,351.0156" style="stroke:#000000;stroke-width:1;"/></g><!--link k1 to k2--><g id="link_k1_k2"><path d="M3851.13,351.0156 C3862.89,351.0156 3868.64,351.0156 3880.4,351.0156 " fill="none" id="k1-to-k2" style="stroke:#000000;stroke-width:1;"/><polygon fill="#000000" points="3886.4,351.0156,3877.4,347.0156,3881.4,351.0156,3877.4,355.0156,3886.4,351.0156" style="stroke:#000000;stroke-width:1;"/></g><!--link k2 to k3--><g id="link_k2_k3"><path d="M3967.78,351.0156 C3979.29,351.0156 3984.79,351.0156 3996.3,351.0156 " fill="none" id="k2-to-k3" style="stroke:#000000;stroke-width:1;"/><polygon fill="#000000" points="4002.3,351.0156,3993.3,347.0156,3997.3,351.0156,3993.3,355.0156,4002.3,351.0156" style="stroke:#000000;stroke-width:1;"/></g><!--link k3 to k4--><g id="link_k3_k4"><path d="M4143.75,351.0156 C4155.29,351.0156 4160.83,351.0156 4172.37,351.0156 " fill="none" id="k3-to-k4" style="stroke:#000000;stroke-width:1;"/><polygon fill="#000000" points="4178.37,351.0156,4169.37,347.0156,4173.37,351.0156,4169.37,355.0156,4178.37,351.0156" style="stroke:#000000;stroke-width:1;"/></g><!--link k4 to k5--><g id="link_k4_k5"><path d="M4317.72,351.0156 C4329.21,351.0156 4334.7,351.0156 4346.19,351.0156 " fill="none" id="k4-to-k5" style="stroke:#000000;stroke-width:1;"/><polygon fill="#000000" points="4352.19,351.0156,4343.19,347.0156,4347.19,351.0156,4343.19,355.0156,4352.19,351.0156" style="stroke:#000000;stroke-width:1;"/></g><!--link h1 to h2--><g id="link_h1_h2"><path d="M4706.03,351.0156 C4717.65,351.0156 4723.28,351.0156 4734.9,351.0156 " fill="none" id="h1-to-h2" style="stroke:#000000;stroke-width:1;"/><polygon fill="#000000" points="4740.9,351.0156,4731.9,347.0156,4735.9,351.0156,4731.9,355.0156,4740.9,351.0156" style="stroke:#000000;stroke-width:1;"/></g><!--link h2 to h3--><g id="link_h2_h3"><path d="M4863.09,351.0156 C4874.86,351.0156 4880.63,351.0156 4892.4,351.0156 " fill="none" id="h2-to-h3" style="stroke:#000000;stroke-width:1;"/><polygon fill="#000000" points="4898.4,351.0156,4889.4,347.0156,4893.4,351.0156,4889.4,355.0156,4898.4,351.0156" style="stroke:#000000;stroke-width:1;"/></g><!--link h3 to h4--><g id="link_h3_h4"><path d="M5045.78,351.0156 C5057.46,351.0156 5063.15,351.0156 5074.84,351.0156 " fill="none" id="h3-to-h4" style="stroke:#000000;stroke-width:1;"/><polygon fill="#000000" points="5080.84,351.0156,5071.84,347.0156,5075.84,351.0156,5071.84,355.0156,5080.84,351.0156" style="stroke:#000000;stroke-width:1;"/></g><!--link h4 to h5--><g id="link_h4_h5"><path d="M5267.29,351.0156 C5278.93,351.0156 5284.56,351.0156 5296.2,351.0156 " fill="none" id="h4-to-h5" style="stroke:#000000;stroke-width:1;"/><polygon fill="#000000" points="5302.2,351.0156,5293.2,347.0156,5297.2,351.0156,5293.2,355.0156,5302.2,351.0156" style="stroke:#000000;stroke-width:1;"/></g><!--link n1 to n2--><g id="link_n1_n2"><path d="M5688.6,351.0156 C5700.29,351.0156 5705.97,351.0156 5717.66,351.0156 " fill="none" id="n1-to-n2" style="stroke:#000000;stroke-width:1;"/><polygon fill="#000000" points="5723.66,351.0156,5714.66,347.0156,5718.66,351.0156,5714.66,355.0156,5723.66,351.0156" style="stroke:#000000;stroke-width:1;"/></g><!--link n2 to n3--><g id="link_n2_n3"><path d="M5906.12,351.0156 C5917.74,351.0156 5923.35,351.0156 5934.96,351.0156 " fill="none" id="n2-to-n3" style="stroke:#000000;stroke-width:1;"/><polygon fill="#000000" points="5940.96,351.0156,5931.96,347.0156,5935.96,351.0156,5931.96,355.0156,5940.96,351.0156" style="stroke:#000000;stroke-width:1;"/></g><!--link n3 to n4--><g id="link_n3_n4"><path d="M6119.02,351.0156 C6130.67,351.0156 6136.32,351.0156 6147.96,351.0156 " fill="none" id="n3-to-n4" style="stroke:#000000;stroke-width:1;"/><polygon fill="#000000" points="6153.96,351.0156,6144.96,347.0156,6148.96,351.0156,6144.96,355.0156,6153.96,351.0156" style="stroke:#000000;stroke-width:1;"/></g><!--link n4 to n5--><g id="link_n4_n5"><path d="M6336.19,351.0156 C6347.69,351.0156 6353.19,351.0156 6364.69,351.0156 " fill="none" id="n4-to-n5" style="stroke:#000000;stroke-width:1;"/><polygon fill="#000000" points="6370.69,351.0156,6361.69,347.0156,6365.69,351.0156,6361.69,355.0156,6370.69,351.0156" style="stroke:#000000;stroke-width:1;"/></g><!--SRC=[RLVRRYEv4NtlhwWum637aEAHPIMR0PA5HhPtdB4JmtPs0aHveDWbDLVTP2_9jgt99B-LztnPJZLreJQB0KRTpJfayTIfYtyLAswOsbePMuIriQtogg65qkkLTvqjPwvsddvzVIN_CekIbwghuxMpyT5yOHfTP8lHn9htI-VdsP9sJUiiOobkQYRFEYgxghaeUX3TcYL70vSk-PbhrpOmfJlLqZVlXkF9sxcTspi5k_lh6JKgTfu3_VjyCXo_ewzqpSt_hus6vnTpU_KQsPR6hYWw6a_eMTMcL14Ma-7e7MrO-K1kkSKD5nw4aEiY_ENmcwAeUGKym2tLl8m5qTS_q7sb0il3T8MDyFkXXpr6R4nVnOQkXKGLZRDuUJUSuFy7rPgImiQgDZhioi64hVNLQmkwT-Q_7OxEyNFlEokElw7GiZPm_ClMOdk2RtQ8qNWu-Xr-RqspC9fArnYhhDuvSwiwgokn-nQaoDPWgan4omd9QkPiS3qxQTCTksBSBvYbuPt7Zv5Vb2z3PLgyZKS8alZKrNMYqiGDB8Mwn61HjD2MMZ6TFBO6ovsg3rSu8HLmozttV-A8luEqkRttQiC-3EXxOITs9SyjK2lpBFo5V_IuaPWBQNFxgBrf9P83-cX2T7upjv-ThqiehZOh7BN5d0kcfsrkdog6sbUR0Lt5okWmjzDMFa2GUci-xis_xILrOqjkSILHQEkLXXMyca7W083D5pdlsV3B5diXM25p8d9K20sNo0VxRBJS7SST6AbPbRWlM4tOIV6lZBdhFgfGGfubFNVB_Sg1kydvx-c-LdP0Vtswc-8KzGpt0lseVB_vCkDDl1V5ah6HaJyHvj7fTJZxu6mPpkJEhmcLC_U8D4QP001vfAkvVN2nefk7wO0kPzDadrDtf_oQ8-cDhXdt_i0LV8Bmw-q5E45onfxKArNAFyCdU3-ttoFmALE0Uc5Lnog1ZgcwAZkTXFo6Piep-vudtdy-y8JaSm62YOZbUcvt30GQ3IVzrfmJLNSBoB7rxaVSFUpZ7lVIufoWQPjK2qYeLEbU-ZlSo15Meho5v1nTyWhkqXazUMY1pi2QgKrKVeDlFo3WK7T2vJJTgO0zeVOxMBY3WlYObXceX6AtREZTMyR60mSKwc0MSYZs-uYg7I9ouvEnvJxdz95sEe_D4N8Jj6bhw1j9Qdn0eALE1X2mIQYS6Y5X9NLYG7Utd-Wvz1LUkxgXlv52T3UeZmcMqmF_u1bRoRay4uyHEJMVJK117D2Vkd8b2GEFz_V-MRxfOxQaAT7ZsjHrI1MgVyp8UkHwETIGboY_Wq0vdRy-eiUj-wZFS9WKz6IHKt7fZQJcW19hofImtYpO3sXwGuW35AyJXUkS2-I6AEl61aIWP-IgOOzogpTGAASxhO_gJ-Xx5Fg-jSafrpHeCwZMFwDYVKp5HqQevEaDtGZVGFIKLBll1rAkKUBg3KdrDLi-geoFxNA4o4NQgstRQrGwjpfA7rmg75UOQsLGOdR79aZEIIhxHgCweCP6VaMyRo5RQ9gMtZMajdjkFSlPcQ8WFujWzxrDi2jmJzfpxsS2_O9C_enAjZeqCxj_pPZvoqAA1hMCjcUJX6Ug2q8gBvTOcjkJpvMAA7WjT8rTuFvt9_sPDgFmackqnRw91FwfavsaYspWE8QmojWakCzAr8hX1WTgRlVksvpYWz_Kk99hA5cLfkjnnYxhRkidaXoEQkTbT1DhxK9Cs-NqznF04XCVemsYcevzUNQ1W3aFSUKRtaj8PKHflR5IDb8iRHwFoIy1hwHs8heLelp5OIvyOeNXPdzcsgQFK1ZHq9jL5OT_b8uVphFNSH76sIl6s8liTL8KomoCfhVCmEXfomoCVhNCmEX41MTWD0JEm2Zsd85HnJa3eruNEWEZPEeCZ5AeCp3gdCx0A5_5EWEZoAmpC6h7EWEZCAmpC1A-g38m4h7Am4YoAWCZRweCZ8meR0Q6n6m6XaHi1aQGRGQs0dOeImiNesiWWDFJcVDCTnoHoQUdx-da9eYmfMKP37CBrZBYhaZHYv7UhLMh5ZKUeFnoW1oNIIORqr3OdFtkfEZtFaW-pQ38djDJ-iQrCbWmTfGK8YGFjQZt-0FXxNlWxbtekppzzpyq_MAQ3kB4um-OmxJKJ_ciDTVRwKJUPnso1SVZyKd-jf5FAOzc-pnABbrY6KqN-IoUbFq8qAVW4W_eNc_VqoVhNcekLscRVGV3Iog9U7X0NUW74Paiv4C-fUCrrR9-AXU-Y_y1]--></g></svg>