<svg xmlns="http://www.w3.org/2000/svg" xmlns:xlink="http://www.w3.org/1999/xlink" contentStyleType="text/css" height="470px" preserveAspectRatio="none" style="width:5699px;height:470px;background:#FEFEFE;" version="1.1" viewBox="0 0 5699 470" width="5699px" zoomAndPan="magnify"><title>Lifetime Development Map (0-35)</title><defs/><g><rect fill="#FEFEFE" height="470" style="stroke:none;stroke-width:1;" width="5699" x="0" y="0"/><text fill="#000000" font-family="Verdana" font-size="22" font-weight="bold" lengthAdjust="spacing" textLength="417.4521" x="2636.4795" y="35.4209">Lifetime Development Map (0-35)</text><text fill="#000000" font-family="Verdana" font-size="22" font-weight="bold" lengthAdjust="spacing" textLength="7.6592" x="2841.376" y="61.0303">&#160;</text><text fill="#000000" font-family="Verdana" font-size="22" font-weight="bold" lengthAdjust="spacing" textLength="696.502" x="2496.9546" y="86.6396">Male PFC matures ~25-30 | Female PFC matures ~21-24</text><text fill="#000000" font-family="Verdana" font-size="22" font-weight="bold" lengthAdjust="spacing" textLength="795.9639" x="2447.2236" y="112.249">Extending to 35 validates 5-10 years of mature-brain outcomes.</text><rect fill="none" height="128.0781" id="_legend" rx="7.5" ry="7.5" style="stroke:#000000;stroke-width:1;" width="341.4131" x="10" y="133.4375"/><text fill="#000000" font-family="Verdana" font-size="14" font-weight="bold" lengthAdjust="spacing" textLength="47.5029" x="19.874" y="153.4326">Phase</text><text fill="#000000" font-family="Verdana" font-size="14" font-weight="bold" lengthAdjust="spacing" textLength="38.6846" x="123.9102" y="153.4326">Ages</text><text fill="#000000" font-family="Verdana" font-size="14" font-weight="bold" lengthAdjust="spacing" textLength="89.0723" x="173.4912" y="153.4326">Brain State</text><text fill="#000000" font-family="Verdana" font-size="14" lengthAdjust="spacing" textLength="78.6475" x="19.4502" y="169.7295">Foundation</text><text fill="#000000" font-family="Verdana" font-size="14" lengthAdjust="spacing" textLength="22.8662" x="123.4863" y="169.7295">0-5</text><text fill="#000000" font-family="Verdana" font-size="14" lengthAdjust="spacing" textLength="153.8564" x="173.0674" y="169.7295">Rapid synaptogenesis</text><text fill="#000000" font-family="Verdana" font-size="14" lengthAdjust="spacing" textLength="79.625" x="19.4502" y="186.0264">Exploration</text><text fill="#000000" font-family="Verdana" font-size="14" lengthAdjust="spacing" textLength="31.7734" x="123.4863" y="186.0264">6-12</text><text fill="#000000" font-family="Verdana" font-size="14" lengthAdjust="spacing" textLength="168.8955" x="173.0674" y="186.0264">Pruning &amp; specialization</text><text fill="#000000" font-family="Verdana" font-size="14" lengthAdjust="spacing" textLength="71.4082" x="19.4502" y="202.3232">Formation</text><text fill="#000000" font-family="Verdana" font-size="14" lengthAdjust="spacing" textLength="40.6807" x="123.4863" y="202.3232">13-17</text><text fill="#000000" font-family="Verdana" font-size="14" lengthAdjust="spacing" textLength="127.8662" x="173.0674" y="202.3232">Limbic dominance</text><text fill="#000000" font-family="Verdana" font-size="14" lengthAdjust="spacing" textLength="50.6953" x="19.4502" y="218.6201">Launch</text><text fill="#000000" font-family="Verdana" font-size="14" lengthAdjust="spacing" textLength="40.6807" x="123.4863" y="218.6201">18-24</text><text fill="#000000" font-family="Verdana" font-size="14" lengthAdjust="spacing" textLength="108.1104" x="173.0674" y="218.6201">PFC developing</text><text fill="#000000" font-family="Verdana" font-size="14" lengthAdjust="spacing" textLength="95.1357" x="19.4502" y="234.917">Consolidation</text><text fill="#000000" font-family="Verdana" font-size="14" lengthAdjust="spacing" textLength="40.6807" x="123.4863" y="234.917">25-30</text><text fill="#000000" font-family="Verdana" font-size="14" lengthAdjust="spacing" textLength="91.8613" x="173.0674" y="234.917">PFC solidifies</text><text fill="#000000" font-family="Verdana" font-size="14" lengthAdjust="spacing" textLength="86.6045" x="19.4502" y="251.2139">Stewardship</text><text fill="#000000" font-family="Verdana" font-size="14" lengthAdjust="spacing" textLength="40.6807" x="123.4863" y="251.2139">31-35</text><text fill="#000000" font-family="Verdana" font-size="14" lengthAdjust="spacing" textLength="89.1543" x="173.0674" y="251.2139">Full maturity</text><line style="stroke:#000000;stroke-width:1;" x1="15" x2="346.4131" y1="140.4375" y2="140.4375"/><line style="stroke:#000000;stroke-width:1;" x1="15" x2="346.4131" y1="156.7344" y2="156.7344"/><line style="stroke:#000000;stroke-width:1;" x1="15" x2="346.4131" y1="173.0313" y2="173.0313"/><line style="stroke:#000000;stroke-width:1;" x1="15" x2="346.4131" y1="189.3281" y2="189.3281"/><line style="stroke:#000000;stroke-width:1;" x1="15" x2="346.4131" y1="205.625" y2="205.625"/><line style="stroke:#000000;stroke-width:1;" x1="15" x2="346.4131" y1="221.9219" y2="221.9219"/><line style="stroke:#000000;stroke-width:1;" x1="15" x2="346.4131" y1="238.2188" y2="238.2188"/><line style="stroke:#000000;stroke-width:1;" x1="15" x2="346.4131" y1="254.5156" y2="254.5156"/><line style="stroke:#000000;stroke-width:1;" x1="15" x2="15" y1="140.4375" y2="254.5156"/><line style="stroke:#000000;stroke-width:1;" x1="119.0361" x2="119.0361" y1="140.4375" y2="254.5156"/><line style="stroke:#000000;stroke-width:1;" x1="168.6172" x2="168.6172" y1="140.4375" y2="254.5156"/><line style="stroke:#000000;stroke-width:1;" x1="346.4131" x2="346.4131" y1="140.4375" y2="254.5156"/><!--cluster spiritual--><g id="cluster_spiritual"><path d="M13.5,273.5156 L168.083,273.5156 A3.75,3.75 0 0 1 170.583,276.0156 L177.583,295.8125 L959.5,295.8125 A2.5,2.5 0 0 1 962,298.3125 L962,391.0156 A2.5,2.5 0 0 1 959.5,393.5156 L13.5,393.5156 A2.5,2.5 0 0 1 11,391.0156 L11,276.0156 A2.5,2.5 0 0 1 13.5,273.5156 " fill="#FFFFFF" style="stroke:#000000;stroke-width:1;"/><line style="stroke:#000000;stroke-width:1;" x1="11" x2="177.583" y1="295.8125" y2="295.8125"/><text fill="#000000" font-family="Verdana" font-size="14" font-weight="bold" lengthAdjust="spacing" textLength="153.583" x="15" y="288.5107">Spiritual Formation</text></g><!--cluster financial--><g id="cluster_financial"><path d="M988.5,273.5156 L1170.3789,273.5156 A3.75,3.75 0 0 1 1172.8789,276.0156 L1179.8789,295.8125 L1887.5,295.8125 A2.5,2.5 0 0 1 1890,298.3125 L1890,391.0156 A2.5,2.5 0 0 1 1887.5,393.5156 L988.5,393.5156 A2.5,2.5 0 0 1 986,391.0156 L986,276.0156 A2.5,2.5 0 0 1 988.5,273.5156 " fill="#FFFFFF" style="stroke:#000000;stroke-width:1;"/><line style="stroke:#000000;stroke-width:1;" x1="986" x2="1179.8789" y1="295.8125" y2="295.8125"/><text fill="#000000" font-family="Verdana" font-size="14" font-weight="bold" lengthAdjust="spacing" textLength="180.8789" x="990" y="288.5107">Financial Development</text></g><!--cluster education--><g id="cluster_education"><path d="M1916.5,273.5156 L2070.3516,273.5156 A3.75,3.75 0 0 1 2072.8516,276.0156 L2079.8516,295.8125 L2734.5,295.8125 A2.5,2.5 0 0 1 2737,298.3125 L2737,391.0156 A2.5,2.5 0 0 1 2734.5,393.5156 L1916.5,393.5156 A2.5,2.5 0 0 1 1914,391.0156 L1914,276.0156 A2.5,2.5 0 0 1 1916.5,273.5156 " fill="#FFFFFF" style="stroke:#000000;stroke-width:1;"/><line style="stroke:#000000;stroke-width:1;" x1="1914" x2="2079.8516" y1="295.8125" y2="295.8125"/><text fill="#000000" font-family="Verdana" font-size="14" font-weight="bold" lengthAdjust="spacing" textLength="152.8516" x="1918" y="288.5107">Education &amp; Career</text></g><!--cluster character--><g id="cluster_character"><path d="M2763.5,273.5156 L2841.9307,273.5156 A3.75,3.75 0 0 1 2844.4307,276.0156 L2851.4307,295.8125 L3726.5,295.8125 A2.5,2.5 0 0 1 3729,298.3125 L3729,391.0156 A2.5,2.5 0 0 1 3726.5,393.5156 L2763.5,393.5156 A2.5,2.5 0 0 1 2761,391.0156 L2761,276.0156 A2.5,2.5 0 0 1 2763.5,273.5156 " fill="#FFFFFF" style="stroke:#000000;stroke-width:1;"/><line style="stroke:#000000;stroke-width:1;" x1="2761" x2="2851.4307" y1="295.8125" y2="295.8125"/><text fill="#000000" font-family="Verdana" font-size="14" font-weight="bold" lengthAdjust="spacing" textLength="77.4307" x="2765" y="288.5107">Character</text></g><!--cluster skills--><g id="cluster_skills"><path d="M3755.5,273.5156 L3832.8027,273.5156 A3.75,3.75 0 0 1 3835.3027,276.0156 L3842.3027,295.8125 L4545.5,295.8125 A2.5,2.5 0 0 1 4548,298.3125 L4548,391.0156 A2.5,2.5 0 0 1 4545.5,393.5156 L3755.5,393.5156 A2.5,2.5 0 0 1 3753,391.0156 L3753,276.0156 A2.5,2.5 0 0 1 3755.5,273.5156 " fill="#FFFFFF" style="stroke:#000000;stroke-width:1;"/><line style="stroke:#000000;stroke-width:1;" x1="3753" x2="3842.3027" y1="295.8125" y2="295.8125"/><text fill="#000000" font-family="Verdana" font-size="14" font-weight="bold" lengthAdjust="spacing" textLength="76.3027" x="3757" y="288.5107">Life Skills</text></g><!--cluster heritage--><g id="cluster_heritage"><path d="M4574.5,273.5156 L4728.0303,273.5156 A3.75,3.75 0 0 1 4730.5303,276.0156 L4737.5303,295.8125 L5469.5,295.8125 A2.5,2.5 0 0 1 5472,298.3125 L5472,391.0156 A2.5,2.5 0 0 1 5469.5,393.5156 L4574.5,393.5156 A2.5,2.5 0 0 1 4572,391.0156 L4572,276.0156 A2.5,2.5 0 0 1 4574.5,273.5156 " fill="#FFFFFF" style="stroke:#000000;stroke-width:1;"/><line style="stroke:#000000;stroke-width:1;" x1="4572" x2="4737.5303" y1="295.8125" y2="295.8125"/><text fill="#000000" font-family="Verdana" font-size="14" font-weight="bold" lengthAdjust="spacing" textLength="152.5303" x="4576" y="288.5107">Heritage &amp; Identity</text></g><!--entity s1--><g id="elem_s1"><rect fill="#FFFFFF" height="68.8906" rx="2.5" ry="2.5" style="stroke:#000000;stroke-width:1;" width="148.0508" x="27" y="308.5156"/><text fill="#000000" font-family="Verdana" font-size="14" lengthAdjust="spacing" textLength="22.8662" x="37" y="331.5107">0-5</text><text fill="#000000" font-family="Verdana" font-size="14" lengthAdjust="spacing" textLength="128.0508" x="37" y="347.8076">Prayers, Gratitude</text><text fill="#000000" font-family="Verdana" font-size="14" lengthAdjust="spacing" textLength="84.123" x="37" y="364.1045">Forgiveness</text></g><!--entity s2--><g id="elem_s2"><rect fill="#FFFFFF" height="68.8906" rx="2.5" ry="2.5" style="stroke:#000000;stroke-width:1;" width="142.5547" x="210.5" y="308.5156"/><text fill="#000000" font-family="Verdana" font-size="14" lengthAdjust="spacing" textLength="31.7734" x="220.5" y="331.5107">6-12</text><text fill="#000000" font-family="Verdana" font-size="14" lengthAdjust="spacing" textLength="122.5547" x="220.5" y="347.8076">Scripture, History</text><text fill="#000000" font-family="Verdana" font-size="14" lengthAdjust="spacing" textLength="105.0479" x="220.5" y="364.1045">World religions</text></g><!--entity s3--><g id="elem_s3"><rect fill="#FFFFFF" height="68.8906" rx="2.5" ry="2.5" style="stroke:#000000;stroke-width:1;" width="135.2197" x="388.5" y="308.5156"/><text fill="#000000" font-family="Verdana" font-size="14" lengthAdjust="spacing" textLength="40.6807" x="398.5" y="331.5107">13-17</text><text fill="#000000" font-family="Verdana" font-size="14" lengthAdjust="spacing" textLength="115.2197" x="398.5" y="347.8076">Theology, Ethics</text><text fill="#000000" font-family="Verdana" font-size="14" lengthAdjust="spacing" textLength="81.3545" x="398.5" y="364.1045">Apologetics</text></g><!--entity s4--><g id="elem_s4"><rect fill="#FFFFFF" height="68.8906" rx="2.5" ry="2.5" style="stroke:#000000;stroke-width:1;" width="179.1475" x="558.5" y="308.5156"/><text fill="#000000" font-family="Verdana" font-size="14" lengthAdjust="spacing" textLength="40.6807" x="568.5" y="331.5107">18-24</text><text fill="#000000" font-family="Verdana" font-size="14" lengthAdjust="spacing" textLength="149.7959" x="568.5" y="347.8076">Independent practice</text><text fill="#000000" font-family="Verdana" font-size="14" lengthAdjust="spacing" textLength="159.1475" x="568.5" y="364.1045">Competing worldviews</text></g><!--entity s5--><g id="elem_s5"><rect fill="#FFFFFF" height="68.8906" rx="2.5" ry="2.5" style="stroke:#000000;stroke-width:1;" width="173.1797" x="772.5" y="308.5156"/><text fill="#000000" font-family="Verdana" font-size="14" lengthAdjust="spacing" textLength="40.6807" x="782.5" y="331.5107">25-35</text><text fill="#000000" font-family="Verdana" font-size="14" lengthAdjust="spacing" textLength="153.1797" x="782.5" y="347.8076">Examined convictions</text><text fill="#000000" font-family="Verdana" font-size="14" lengthAdjust="spacing" textLength="135.8711" x="782.5" y="364.1045">Spiritual leadership</text></g><!--entity f1--><g id="elem_f1"><rect fill="#FFFFFF" height="68.8906" rx="2.5" ry="2.5" style="stroke:#000000;stroke-width:1;" width="130.3115" x="1002" y="308.5156"/><text fill="#000000" font-family="Verdana" font-size="14" lengthAdjust="spacing" textLength="22.8662" x="1012" y="331.5107">0-5</text><text fill="#000000" font-family="Verdana" font-size="14" lengthAdjust="spacing" textLength="110.3115" x="1012" y="347.8076">529 Plan, UTMA</text><text fill="#000000" font-family="Verdana" font-size="14" lengthAdjust="spacing" textLength="77.3691" x="1012" y="364.1045">Savings jar</text></g><!--entity f2--><g id="elem_f2"><rect fill="#FFFFFF" height="68.8906" rx="2.5" ry="2.5" style="stroke:#000000;stroke-width:1;" width="157.4844" x="1167.5" y="308.5156"/><text fill="#000000" font-family="Verdana" font-size="14" lengthAdjust="spacing" textLength="31.7734" x="1177.5" y="331.5107">6-12</text><text fill="#000000" font-family="Verdana" font-size="14" lengthAdjust="spacing" textLength="134.5313" x="1177.5" y="347.8076">Compound interest</text><text fill="#000000" font-family="Verdana" font-size="14" lengthAdjust="spacing" textLength="137.4844" x="1177.5" y="364.1045">Stocks/Bonds/Index</text></g><!--entity f3--><g id="elem_f3"><rect fill="#FFFFFF" height="68.8906" rx="2.5" ry="2.5" style="stroke:#000000;stroke-width:1;" width="130.6396" x="1359.5" y="308.5156"/><text fill="#000000" font-family="Verdana" font-size="14" lengthAdjust="spacing" textLength="40.6807" x="1369.5" y="331.5107">13-17</text><text fill="#000000" font-family="Verdana" font-size="14" lengthAdjust="spacing" textLength="110.6396" x="1369.5" y="347.8076">Sector research</text><text fill="#000000" font-family="Verdana" font-size="14" lengthAdjust="spacing" textLength="99.5723" x="1369.5" y="364.1045">Roth IRA, DCA</text></g><!--entity f4--><g id="elem_f4"><rect fill="#FFFFFF" height="68.8906" rx="2.5" ry="2.5" style="stroke:#000000;stroke-width:1;" width="150.5391" x="1525.5" y="308.5156"/><text fill="#000000" font-family="Verdana" font-size="14" lengthAdjust="spacing" textLength="40.6807" x="1535.5" y="331.5107">18-24</text><text fill="#000000" font-family="Verdana" font-size="14" lengthAdjust="spacing" textLength="96.5508" x="1535.5" y="347.8076">Market cycles</text><text fill="#000000" font-family="Verdana" font-size="14" lengthAdjust="spacing" textLength="130.5391" x="1535.5" y="364.1045">Behavioral finance</text></g><!--entity f5--><g id="elem_f5"><rect fill="#FFFFFF" height="68.8906" rx="2.5" ry="2.5" style="stroke:#000000;stroke-width:1;" width="161.9141" x="1712" y="308.5156"/><text fill="#000000" font-family="Verdana" font-size="14" lengthAdjust="spacing" textLength="40.6807" x="1722" y="331.5107">25-35</text><text fill="#000000" font-family="Verdana" font-size="14" lengthAdjust="spacing" textLength="104.4053" x="1722" y="347.8076">Tax harvesting</text><text fill="#000000" font-family="Verdana" font-size="14" lengthAdjust="spacing" textLength="141.9141" x="1722" y="364.1045">Generational wealth</text></g><!--entity e1--><g id="elem_e1"><rect fill="#FFFFFF" height="68.8906" rx="2.5" ry="2.5" style="stroke:#000000;stroke-width:1;" width="115.0195" x="1930.5" y="308.5156"/><text fill="#000000" font-family="Verdana" font-size="14" lengthAdjust="spacing" textLength="22.8662" x="1940.5" y="331.5107">0-5</text><text fill="#000000" font-family="Verdana" font-size="14" lengthAdjust="spacing" textLength="95.0195" x="1940.5" y="347.8076">Expose, track</text><text fill="#000000" font-family="Verdana" font-size="14" lengthAdjust="spacing" textLength="88.6279" x="1940.5" y="364.1045">interests 1-5</text></g><!--entity e2--><g id="elem_e2"><rect fill="#FFFFFF" height="68.8906" rx="2.5" ry="2.5" style="stroke:#000000;stroke-width:1;" width="123.8105" x="2081" y="308.5156"/><text fill="#000000" font-family="Verdana" font-size="14" lengthAdjust="spacing" textLength="31.7734" x="2091" y="331.5107">6-12</text><text fill="#000000" font-family="Verdana" font-size="14" lengthAdjust="spacing" textLength="103.8105" x="2091" y="347.8076">Clubs, projects</text><text fill="#000000" font-family="Verdana" font-size="14" lengthAdjust="spacing" textLength="92.9688" x="2091" y="364.1045">Competitions</text></g><!--entity e3--><g id="elem_e3"><rect fill="#FFFFFF" height="68.8906" rx="2.5" ry="2.5" style="stroke:#000000;stroke-width:1;" width="171.1973" x="2240.5" y="308.5156"/><text fill="#000000" font-family="Verdana" font-size="14" lengthAdjust="spacing" textLength="40.6807" x="2250.5" y="331.5107">13-17</text><text fill="#000000" font-family="Verdana" font-size="14" lengthAdjust="spacing" textLength="151.1973" x="2250.5" y="347.8076">Aptitudes, shadowing</text><text fill="#000000" font-family="Verdana" font-size="14" lengthAdjust="spacing" textLength="77.9707" x="2250.5" y="364.1045">Internships</text></g><!--entity e4--><g id="elem_e4"><rect fill="#FFFFFF" height="68.8906" rx="2.5" ry="2.5" style="stroke:#000000;stroke-width:1;" width="141.2695" x="2446.5" y="308.5156"/><text fill="#000000" font-family="Verdana" font-size="14" lengthAdjust="spacing" textLength="40.6807" x="2456.5" y="331.5107">18-24</text><text fill="#000000" font-family="Verdana" font-size="14" lengthAdjust="spacing" textLength="114.4336" x="2456.5" y="347.8076">Degree / Trade /</text><text fill="#000000" font-family="Verdana" font-size="14" lengthAdjust="spacing" textLength="121.2695" x="2456.5" y="364.1045">Military / Venture</text></g><!--entity e5--><g id="elem_e5"><rect fill="#FFFFFF" height="68.8906" rx="2.5" ry="2.5" style="stroke:#000000;stroke-width:1;" width="98.3193" x="2623" y="308.5156"/><text fill="#000000" font-family="Verdana" font-size="14" lengthAdjust="spacing" textLength="40.6807" x="2633" y="331.5107">25-35</text><text fill="#000000" font-family="Verdana" font-size="14" lengthAdjust="spacing" textLength="56.0957" x="2633" y="347.8076">Mastery</text><text fill="#000000" font-family="Verdana" font-size="14" lengthAdjust="spacing" textLength="78.3193" x="2633" y="364.1045">Mentorship</text></g><!--entity c1--><g id="elem_c1"><rect fill="#FFFFFF" height="68.8906" rx="2.5" ry="2.5" style="stroke:#000000;stroke-width:1;" width="149.4521" x="2776.5" y="308.5156"/><text fill="#000000" font-family="Verdana" font-size="14" lengthAdjust="spacing" textLength="22.8662" x="2786.5" y="331.5107">0-5</text><text fill="#000000" font-family="Verdana" font-size="14" lengthAdjust="spacing" textLength="97.4736" x="2786.5" y="347.8076">Responsibility</text><text fill="#000000" font-family="Verdana" font-size="14" lengthAdjust="spacing" textLength="129.4521" x="2786.5" y="364.1045">Honesty, Kindness</text></g><!--entity c2--><g id="elem_c2"><rect fill="#FFFFFF" height="68.8906" rx="2.5" ry="2.5" style="stroke:#000000;stroke-width:1;" width="155.6523" x="2961" y="308.5156"/><text fill="#000000" font-family="Verdana" font-size="14" lengthAdjust="spacing" textLength="31.7734" x="2971" y="331.5107">6-12</text><text fill="#000000" font-family="Verdana" font-size="14" lengthAdjust="spacing" textLength="135.6523" x="2971" y="347.8076">Courage, Discipline</text><text fill="#000000" font-family="Verdana" font-size="14" lengthAdjust="spacing" textLength="110.3936" x="2971" y="364.1045">First case study</text></g><!--entity c3--><g id="elem_c3"><rect fill="#FFFFFF" height="68.8906" rx="2.5" ry="2.5" style="stroke:#000000;stroke-width:1;" width="153.5127" x="3152" y="308.5156"/><text fill="#000000" font-family="Verdana" font-size="14" lengthAdjust="spacing" textLength="40.6807" x="3162" y="331.5107">13-17</text><text fill="#000000" font-family="Verdana" font-size="14" lengthAdjust="spacing" textLength="117.4004" x="3162" y="347.8076">Integrity, MLK vs</text><text fill="#000000" font-family="Verdana" font-size="14" lengthAdjust="spacing" textLength="133.5127" x="3162" y="364.1045">Malcolm X analysis</text></g><!--entity c4--><g id="elem_c4"><rect fill="#FFFFFF" height="68.8906" rx="2.5" ry="2.5" style="stroke:#000000;stroke-width:1;" width="169.8711" x="3341" y="308.5156"/><text fill="#000000" font-family="Verdana" font-size="14" lengthAdjust="spacing" textLength="40.6807" x="3351" y="331.5107">18-24</text><text fill="#000000" font-family="Verdana" font-size="14" lengthAdjust="spacing" textLength="71.1006" x="3351" y="347.8076">Resilience</text><text fill="#000000" font-family="Verdana" font-size="14" lengthAdjust="spacing" textLength="149.8711" x="3351" y="364.1045">Independent analysis</text></g><!--entity c5--><g id="elem_c5"><rect fill="#FFFFFF" height="68.8906" rx="2.5" ry="2.5" style="stroke:#000000;stroke-width:1;" width="166.8496" x="3546.5" y="308.5156"/><text fill="#000000" font-family="Verdana" font-size="14" lengthAdjust="spacing" textLength="40.6807" x="3556.5" y="331.5107">25-35</text><text fill="#000000" font-family="Verdana" font-size="14" lengthAdjust="spacing" textLength="132.4053" x="3556.5" y="347.8076">Wisdom, Judgment</text><text fill="#000000" font-family="Verdana" font-size="14" lengthAdjust="spacing" textLength="146.8496" x="3556.5" y="364.1045">Character leadership</text></g><!--entity k1--><g id="elem_k1"><rect fill="#FFFFFF" height="68.8906" rx="2.5" ry="2.5" style="stroke:#000000;stroke-width:1;" width="82.0156" x="3769" y="308.5156"/><text fill="#000000" font-family="Verdana" font-size="14" lengthAdjust="spacing" textLength="22.8662" x="3779" y="331.5107">0-5</text><text fill="#000000" font-family="Verdana" font-size="14" lengthAdjust="spacing" textLength="62.0156" x="3779" y="347.8076">Self-care</text><text fill="#000000" font-family="Verdana" font-size="14" lengthAdjust="spacing" textLength="61.3252" x="3779" y="364.1045">Routines</text></g><!--entity k2--><g id="elem_k2"><rect fill="#FFFFFF" height="68.8906" rx="2.5" ry="2.5" style="stroke:#000000;stroke-width:1;" width="81.3799" x="3886.5" y="308.5156"/><text fill="#000000" font-family="Verdana" font-size="14" lengthAdjust="spacing" textLength="31.7734" x="3896.5" y="331.5107">6-12</text><text fill="#000000" font-family="Verdana" font-size="14" lengthAdjust="spacing" textLength="56.6631" x="3896.5" y="347.8076">Cooking</text><text fill="#000000" font-family="Verdana" font-size="14" lengthAdjust="spacing" textLength="61.3799" x="3896.5" y="364.1045">Cleaning</text></g><!--entity k3--><g id="elem_k3"><rect fill="#FFFFFF" height="68.8906" rx="2.5" ry="2.5" style="stroke:#000000;stroke-width:1;" width="140.5723" x="4002.5" y="308.5156"/><text fill="#000000" font-family="Verdana" font-size="14" lengthAdjust="spacing" textLength="40.6807" x="4012.5" y="331.5107">13-17</text><text fill="#000000" font-family="Verdana" font-size="14" lengthAdjust="spacing" textLength="115.5479" x="4012.5" y="347.8076">Driving, First aid</text><text fill="#000000" font-family="Verdana" font-size="14" lengthAdjust="spacing" textLength="120.5723" x="4012.5" y="364.1045">Cyber, AI literacy</text></g><!--entity k4--><g id="elem_k4"><rect fill="#FFFFFF" height="68.8906" rx="2.5" ry="2.5" style="stroke:#000000;stroke-width:1;" width="138.9111" x="4178.5" y="308.5156"/><text fill="#000000" font-family="Verdana" font-size="14" lengthAdjust="spacing" textLength="40.6807" x="4188.5" y="331.5107">18-24</text><text fill="#000000" font-family="Verdana" font-size="14" lengthAdjust="spacing" textLength="118.9111" x="4188.5" y="347.8076">Taxes, Insurance</text><text fill="#000000" font-family="Verdana" font-size="14" lengthAdjust="spacing" textLength="115.8008" x="4188.5" y="364.1045">Emergency prep</text></g><!--entity k5--><g id="elem_k5"><rect fill="#FFFFFF" height="68.8906" rx="2.5" ry="2.5" style="stroke:#000000;stroke-width:1;" width="178.7578" x="4352.5" y="308.5156"/><text fill="#000000" font-family="Verdana" font-size="14" lengthAdjust="spacing" textLength="40.6807" x="4362.5" y="331.5107">25-35</text><text fill="#000000" font-family="Verdana" font-size="14" lengthAdjust="spacing" textLength="109.5117" x="4362.5" y="347.8076">Estate planning</text><text fill="#000000" font-family="Verdana" font-size="14" lengthAdjust="spacing" textLength="158.7578" x="4362.5" y="364.1045">Community leadership</text></g><!--entity h1--><g id="elem_h1"><rect fill="#FFFFFF" height="52.5938" rx="2.5" ry="2.5" style="stroke:#000000;stroke-width:1;" width="117.6855" x="4588" y="316.5156"/><text fill="#000000" font-family="Verdana" font-size="14" lengthAdjust="spacing" textLength="22.8662" x="4598" y="339.5107">0-5</text><text fill="#000000" font-family="Verdana" font-size="14" lengthAdjust="spacing" textLength="97.6855" x="4598" y="355.8076">Family stories</text></g><!--entity h2--><g id="elem_h2"><rect fill="#FFFFFF" height="68.8906" rx="2.5" ry="2.5" style="stroke:#000000;stroke-width:1;" width="121.5615" x="4741" y="308.5156"/><text fill="#000000" font-family="Verdana" font-size="14" lengthAdjust="spacing" textLength="31.7734" x="4751" y="331.5107">6-12</text><text fill="#000000" font-family="Verdana" font-size="14" lengthAdjust="spacing" textLength="79.2559" x="4751" y="347.8076">Family tree</text><text fill="#000000" font-family="Verdana" font-size="14" lengthAdjust="spacing" textLength="101.5615" x="4751" y="364.1045">Migration map</text></g><!--entity h3--><g id="elem_h3"><rect fill="#FFFFFF" height="68.8906" rx="2.5" ry="2.5" style="stroke:#000000;stroke-width:1;" width="147.4971" x="4898.5" y="308.5156"/><text fill="#000000" font-family="Verdana" font-size="14" lengthAdjust="spacing" textLength="40.6807" x="4908.5" y="331.5107">13-17</text><text fill="#000000" font-family="Verdana" font-size="14" lengthAdjust="spacing" textLength="127.4971" x="4908.5" y="347.8076">Ancestor research</text><text fill="#000000" font-family="Verdana" font-size="14" lengthAdjust="spacing" textLength="98.0342" x="4908.5" y="364.1045">Faith heritage</text></g><!--entity h4--><g id="elem_h4"><rect fill="#FFFFFF" height="68.8906" rx="2.5" ry="2.5" style="stroke:#000000;stroke-width:1;" width="185.6826" x="5081" y="308.5156"/><text fill="#000000" font-family="Verdana" font-size="14" lengthAdjust="spacing" textLength="40.6807" x="5091" y="331.5107">18-24</text><text fill="#000000" font-family="Verdana" font-size="14" lengthAdjust="spacing" textLength="123.04" x="5091" y="347.8076">Historical context</text><text fill="#000000" font-family="Verdana" font-size="14" lengthAdjust="spacing" textLength="165.6826" x="5091" y="364.1045">Lessons from ancestors</text></g><!--entity h5--><g id="elem_h5"><rect fill="#FFFFFF" height="68.8906" rx="2.5" ry="2.5" style="stroke:#000000;stroke-width:1;" width="153.0137" x="5302.5" y="308.5156"/><text fill="#000000" font-family="Verdana" font-size="14" lengthAdjust="spacing" textLength="40.6807" x="5312.5" y="331.5107">25-35</text><text fill="#000000" font-family="Verdana" font-size="14" lengthAdjust="spacing" textLength="133.0137" x="5312.5" y="347.8076">Active stewardship</text><text fill="#000000" font-family="Verdana" font-size="14" lengthAdjust="spacing" textLength="111.7744" x="5312.5" y="364.1045">Legacy creation</text></g><g id="elem_GMN62"><path d="M5066,437.5156 L5066,463.8125 A0,0 0 0 0 5066,463.8125 L5692.4111,463.8125 A0,0 0 0 0 5692.4111,463.8125 L5692.4111,447.5156 L5682.4111,437.5156 L5383,437.5156 L5379,377.6856 L5375,437.5156 L5066,437.5156 A0,0 0 0 0 5066,437.5156 " fill="#FFFFFF" style="stroke:#000000;stroke-width:1;"/><path d="M5682.4111,437.5156 L5682.4111,447.5156 L5692.4111,447.5156 L5682.4111,437.5156 " fill="#FFFFFF" style="stroke:#000000;stroke-width:1;"/><text fill="#000000" font-family="Verdana" font-size="14" font-weight="bold" lengthAdjust="spacing" textLength="91.2871" x="5072" y="455.5107">Core Metric</text><text fill="#000000" font-family="Verdana" font-size="14" lengthAdjust="spacing" textLength="514.124" x="5163.2871" y="455.5107">: "Is this child becoming a wise, capable, kind, and independent person?"</text></g><!--link s1 to s2--><g id="link_s1_s2"><path d="M175.24,343.0156 C186.92,343.0156 192.59,343.0156 204.27,343.0156 " fill="none" id="s1-to-s2" style="stroke:#000000;stroke-width:1;"/><polygon fill="#000000" points="210.27,343.0156,201.27,339.0156,205.27,343.0156,201.27,347.0156,210.27,343.0156" style="stroke:#000000;stroke-width:1;"/></g><!--link s2 to s3--><g id="link_s2_s3"><path d="M353.71,343.0156 C365.29,343.0156 370.88,343.0156 382.47,343.0156 " fill="none" id="s2-to-s3" style="stroke:#000000;stroke-width:1;"/><polygon fill="#000000" points="388.47,343.0156,379.47,339.0156,383.47,343.0156,379.47,347.0156,388.47,343.0156" style="stroke:#000000;stroke-width:1;"/></g><!--link s3 to s4--><g id="link_s3_s4"><path d="M523.88,343.0156 C535.35,343.0156 540.83,343.0156 552.3,343.0156 " fill="none" id="s3-to-s4" style="stroke:#000000;stroke-width:1;"/><polygon fill="#000000" points="558.3,343.0156,549.3,339.0156,553.3,343.0156,549.3,347.0156,558.3,343.0156" style="stroke:#000000;stroke-width:1;"/></g><!--link s4 to s5--><g id="link_s4_s5"><path d="M737.84,343.0156 C749.36,343.0156 754.87,343.0156 766.39,343.0156 " fill="none" id="s4-to-s5" style="stroke:#000000;stroke-width:1;"/><polygon fill="#000000" points="772.39,343.0156,763.39,339.0156,767.39,343.0156,763.39,347.0156,772.39,343.0156" style="stroke:#000000;stroke-width:1;"/></g><!--link f1 to f2--><g id="link_f1_f2"><path d="M1132.03,343.0156 C1143.75,343.0156 1149.47,343.0156 1161.2,343.0156 " fill="none" id="f1-to-f2" style="stroke:#000000;stroke-width:1;"/><polygon fill="#000000" points="1167.2,343.0156,1158.2,339.0156,1162.2,343.0156,1158.2,347.0156,1167.2,343.0156" style="stroke:#000000;stroke-width:1;"/></g><!--link f2 to f3--><g id="link_f2_f3"><path d="M1324.66,343.0156 C1336.16,343.0156 1341.66,343.0156 1353.15,343.0156 " fill="none" id="f2-to-f3" style="stroke:#000000;stroke-width:1;"/><polygon fill="#000000" points="1359.15,343.0156,1350.15,339.0156,1354.15,343.0156,1350.15,347.0156,1359.15,343.0156" style="stroke:#000000;stroke-width:1;"/></g><!--link f3 to f4--><g id="link_f3_f4"><path d="M1490.66,343.0156 C1502.15,343.0156 1507.64,343.0156 1519.14,343.0156 " fill="none" id="f3-to-f4" style="stroke:#000000;stroke-width:1;"/><polygon fill="#000000" points="1525.14,343.0156,1516.14,339.0156,1520.14,343.0156,1516.14,347.0156,1525.14,343.0156" style="stroke:#000000;stroke-width:1;"/></g><!--link f4 to f5--><g id="link_f4_f5"><path d="M1676.75,343.0156 C1688.41,343.0156 1694.06,343.0156 1705.72,343.0156 " fill="none" id="f4-to-f5" style="stroke:#000000;stroke-width:1;"/><polygon fill="#000000" points="1711.72,343.0156,1702.72,339.0156,1706.72,343.0156,1702.72,347.0156,1711.72,343.0156" style="stroke:#000000;stroke-width:1;"/></g><!--link e1 to e2--><g id="link_e1_e2"><path d="M2045.52,343.0156 C2057.32,343.0156 2063.13,343.0156 2074.93,343.0156 " fill="none" id="e1-to-e2" style="stroke:#000000;stroke-width:1;"/><polygon fill="#000000" points="2080.93,343.0156,2071.93,339.0156,2075.93,343.0156,2071.93,347.0156,2080.93,343.0156" style="stroke:#000000;stroke-width:1;"/></g><!--link e2 to e3--><g id="link_e2_e3"><path d="M2205.19,343.0156 C2216.83,343.0156 2222.47,343.0156 2234.11,343.0156 " fill="none" id="e2-to-e3" style="stroke:#000000;stroke-width:1;"/><polygon fill="#000000" points="2240.11,343.0156,2231.11,339.0156,2235.11,343.0156,2231.11,347.0156,2240.11,343.0156" style="stroke:#000000;stroke-width:1;"/></g><!--link e3 to e4--><g id="link_e3_e4"><path d="M2411.8,343.0156 C2423.31,343.0156 2428.81,343.0156 2440.32,343.0156 " fill="none" id="e3-to-e4" style="stroke:#000000;stroke-width:1;"/><polygon fill="#000000" points="2446.32,343.0156,2437.32,339.0156,2441.32,343.0156,2437.32,347.0156,2446.32,343.0156" style="stroke:#000000;stroke-width:1;"/></g><!--link e4 to e5--><g id="link_e4_e5"><path d="M2587.54,343.0156 C2599.3,343.0156 2605.07,343.0156 2616.84,343.0156 " fill="none" id="e4-to-e5" style="stroke:#000000;stroke-width:1;"/><polygon fill="#000000" points="2622.84,343.0156,2613.84,339.0156,2617.84,343.0156,2613.84,347.0156,2622.84,343.0156" style="stroke:#000000;stroke-width:1;"/></g><!--link c1 to c2--><g id="link_c1_c2"><path d="M2925.54,343.0156 C2937.36,343.0156 2943.18,343.0156 2955,343.0156 " fill="none" id="c1-to-c2" style="stroke:#000000;stroke-width:1;"/><polygon fill="#000000" points="2961,343.0156,2952,339.0156,2956,343.0156,2952,347.0156,2961,343.0156" style="stroke:#000000;stroke-width:1;"/></g><!--link c2 to c3--><g id="link_c2_c3"><path d="M3117.3,343.0156 C3128.79,343.0156 3134.28,343.0156 3145.77,343.0156 " fill="none" id="c2-to-c3" style="stroke:#000000;stroke-width:1;"/><polygon fill="#000000" points="3151.77,343.0156,3142.77,339.0156,3146.77,343.0156,3142.77,347.0156,3151.77,343.0156" style="stroke:#000000;stroke-width:1;"/></g><!--link c3 to c4--><g id="link_c3_c4"><path d="M3306.34,343.0156 C3317.87,343.0156 3323.4,343.0156 3334.93,343.0156 " fill="none" id="c3-to-c4" style="stroke:#000000;stroke-width:1;"/><polygon fill="#000000" points="3340.93,343.0156,3331.93,339.0156,3335.93,343.0156,3331.93,347.0156,3340.93,343.0156" style="stroke:#000000;stroke-width:1;"/></g><!--link c4 to c5--><g id="link_c4_c5"><path d="M3511.27,343.0156 C3522.86,343.0156 3528.46,343.0156 3540.05,343.0156 " fill="none" id="c4-to-c5" style="stroke:#000000;stroke-width:1;"/><polygon fill="#000000" points="3546.05,343.0156,3537.05,339.0156,3541.05,343.0156,3537.05,347.0156,3546.05,343.0156" style="stroke:#000000;stroke-width:1;"/></g><!--link k1 to k2--><g id="link_k1_k2"><path d="M3851.13,343.0156 C3862.89,343.0156 3868.64,343.0156 3880.4,343.0156 " fill="none" id="k1-to-k2" style="stroke:#000000;stroke-width:1;"/><polygon fill="#000000" points="3886.4,343.0156,3877.4,339.0156,3881.4,343.0156,3877.4,347.0156,3886.4,343.0156" style="stroke:#000000;stroke-width:1;"/></g><!--link k2 to k3--><g id="link_k2_k3"><path d="M3967.78,343.0156 C3979.29,343.0156 3984.79,343.0156 3996.3,343.0156 " fill="none" id="k2-to-k3" style="stroke:#000000;stroke-width:1;"/><polygon fill="#000000" points="4002.3,343.0156,3993.3,339.0156,3997.3,343.0156,3993.3,347.0156,4002.3,343.0156" style="stroke:#000000;stroke-width:1;"/></g><!--link k3 to k4--><g id="link_k3_k4"><path d="M4143.75,343.0156 C4155.29,343.0156 4160.83,343.0156 4172.37,343.0156 " fill="none" id="k3-to-k4" style="stroke:#000000;stroke-width:1;"/><polygon fill="#000000" points="4178.37,343.0156,4169.37,339.0156,4173.37,343.0156,4169.37,347.0156,4178.37,343.0156" style="stroke:#000000;stroke-width:1;"/></g><!--link k4 to k5--><g id="link_k4_k5"><path d="M4317.72,343.0156 C4329.21,343.0156 4334.7,343.0156 4346.19,343.0156 " fill="none" id="k4-to-k5" style="stroke:#000000;stroke-width:1;"/><polygon fill="#000000" points="4352.19,343.0156,4343.19,339.0156,4347.19,343.0156,4343.19,347.0156,4352.19,343.0156" style="stroke:#000000;stroke-width:1;"/></g><!--link h1 to h2--><g id="link_h1_h2"><path d="M4706.03,343.0156 C4717.65,343.0156 4723.28,343.0156 4734.9,343.0156 " fill="none" id="h1-to-h2" style="stroke:#000000;stroke-width:1;"/><polygon fill="#000000" points="4740.9,343.0156,4731.9,339.0156,4735.9,343.0156,4731.9,347.0156,4740.9,343.0156" style="stroke:#000000;stroke-width:1;"/></g><!--link h2 to h3--><g id="link_h2_h3"><path d="M4863.09,343.0156 C4874.86,343.0156 4880.63,343.0156 4892.4,343.0156 " fill="none" id="h2-to-h3" style="stroke:#000000;stroke-width:1;"/><polygon fill="#000000" points="4898.4,343.0156,4889.4,339.0156,4893.4,343.0156,4889.4,347.0156,4898.4,343.0156" style="stroke:#000000;stroke-width:1;"/></g><!--link h3 to h4--><g id="link_h3_h4"><path d="M5045.78,343.0156 C5057.46,343.0156 5063.15,343.0156 5074.84,343.0156 " fill="none" id="h3-to-h4" style="stroke:#000000;stroke-width:1;"/><polygon fill="#000000" points="5080.84,343.0156,5071.84,339.0156,5075.84,343.0156,5071.84,347.0156,5080.84,343.0156" style="stroke:#000000;stroke-width:1;"/></g><!--link h4 to h5--><g id="link_h4_h5"><path d="M5267.29,343.0156 C5278.93,343.0156 5284.56,343.0156 5296.2,343.0156 " fill="none" id="h4-to-h5" style="stroke:#000000;stroke-width:1;"/><polygon fill="#000000" points="5302.2,343.0156,5293.2,339.0156,5297.2,343.0156,5293.2,347.0156,5302.2,343.0156" style="stroke:#000000;stroke-width:1;"/></g><!--SRC=[PPPXRzis48Q_wrVSCg3O0dk9xNZh1co3wyHjrXW8ucmTCEy3JPqbJX8fa9GJTzr- -rvAiaDtAD1OrhtayRdtZlx2vrmnrQLGEd65qhMmegADa4LcJQFJkIcDfIyND-5V597oLZIbNnZjL-eZq-WgUkcLB_duQZoENabJrKOpNlbzoMHPUg6pafEa5T6Tsh9NIEcQTroQka8eBKLDNrqE9zElrtgjbm9nzuivLS8tbXtzEvuE9vVqYHPS_V_TQ3Y-MkkRPyywLJeZRsWofPqeLIey8gR3qINjMLX7PjlhXXiB86GQZtpPVPCa9MVGGrnJoLkV47twaUvpuJXyc6LO27_VjBALnyBqASJG8a0KNXcDXylX5Fy_Y5gbvFPQrDvWLNRAzT4tppLm7yA_7Ox6-7Dl6nqIVqMkPgcG-CS-ej_1LWV5Q38SVOU_TwhQA4cfgPGMMXwIkHEDbdc8UmqeOMcGIZlGOOSkQcwqCosTRj43tH3Slb1RnOUCLvwVX4rThceyJKOeKiYfASiEfV9xH0Pq7S4agU4jaJ6ThMg5ruqeNuvmHiBXb8Vl_yOMVm3QMjzRiMVh1lGsqF5DociDLQPsWP_xizMDGdY0jjOhQLKTAZcWTyfvO_Th_S7OCeNZIfLXgrup3feMsre_vWotP_i1tVXSIRVMipfy0KFAFdpIXhzkBNMhKwvnfE3GsWg9A6GrXy4X0CsdiDzEyLEllGhQ07CQx2XG6axH3tgdP3WxjdiXKh98SLvGxRJJv9-8tAAjAfmGTqdBRdjyyy9kElwUxakX1_JhutA6NSGEwJdwIzXsyMt4BMGV74jAUqR_U8Hx8mjtySRer5s4CpztgfZS2csCCG41-aZcQ_rWV4wt3xC1NSzdNNoCRYbimPxaNfQCSx_X73d1-6L_0EuaCR57yKovi3laXEpN-YqAttKAL4yiIfztebDKDsaZEoE_ehcmpBRbnCUlNpYX-Oo3OJngMQprWO2ZqN3QBiqngBBPm8wrDN_XxEvOTt-q5iU0PdNdMaXSBbBpr9xXDcoXGvLxISpecZEaInVqQE45kW0rLIelx1xV_OQ2mzsTAiQq50vhmkrBH9WN1_4fbZbGmh4z3NbuYcWyiCEWTceJDiLwxp2rdKTll5SwFVQSFF5EOx4uIgwSL7K9VwD9bNKeT9YJ3W3sdIf64o1aOKuCQ7dtddQkdV3Ib1NzJWBLtMC-Th8O3_93Pgn3pyMTUAg8qNnG3WDnGByqQHOQ1XaVp_rPlybJMk5IebMXoj9r4whz6C5QSRaTIjWhEB-1GRdRlpZ1OugswdDi5WPw5n6ZkBOgjEQ0Ecf2fOZURzWEQ7PBg0CSBpk4HSm2lH6STQiTAj0IkQdOOjpAFHpAtPcAa_dZsZiAzxxMNLAcgd3DO5f_Xg8uHV6EKQhmwHNT1jvGj4Zom_SlK1OOSUMUmlHLFOyyuj6_zZ1vi7RMNtkLwFRDJze7XtAd4sOX54RCOTjE4ZFfnhwIc0wOiPwVKUyxs1QUfgqr5Ob-pJwpcCuC0taN37kysu8s0tkIbjiyEr7BnereQ5MM- -5FuJvnu-XnahX9z8WVILVHupH9jf4O8tKRYJ4njv4Oqt0RYJ7d4ex463SSYJ5AE19ZHd0anZH8P2H6Gyf8Z4QJaHXT92CncYCf8Z4iN4HYEBE8nB1T4ObXfoIFn2Xp7ebHmZmIeofv90RlH1luTcEyDnKgTdu-DvPfoHwbFZ__WSvk7U7o3ZDDuRRVi0o_WJ8IzAJ2S9UY5fiI7z2BwG0c25TTT8_3-KR_VDR-OWbR9Vy1]--></g></svg>